/* XPM */
static char *mozicon__[] = {
/* columns rows colors chars-per-pixel */
"48 48 256 2",
"   c #0A0A0A",
".  c #181818",
"X  c #3D3D3D",
"o  c #2C2C2C",
"O  c #3A6D15",
"+  c #3F6B3C",
"@  c #416C3B",
"#  c #497D3A",
"$  c #2A3948",
"%  c #4E4E4E",
"&  c #40654F",
"*  c #477546",
"=  c #435B7B",
"-  c #45656C",
";  c #426461",
":  c #57626F",
">  c #6A6A6A",
",  c #717171",
"<  c #251C8B",
"1  c #2D2A97",
"2  c #3A3D9D",
"3  c #2012A2",
"4  c #2616B4",
"5  c #2718B4",
"6  c #2A1AB6",
"7  c #2B1BBC",
"8  c #2F21AD",
"9  c #2C25B3",
"0  c #3325B7",
"q  c #3426BA",
"w  c #3629BD",
"e  c #3A2CBB",
"r  c #392BB6",
"t  c #3E31BD",
"y  c #3E3CB7",
"u  c #3C3FA6",
"i  c #443AA9",
"p  c #4235BD",
"a  c #4A3DBE",
"s  c #4438BD",
"d  c #3B4787",
"f  c #3F5282",
"g  c #3E4896",
"h  c #3E48AF",
"j  c #3967A7",
"k  c #425687",
"l  c #454696",
"z  c #475598",
"x  c #536B95",
"c  c #62629D",
"v  c #444CA3",
"b  c #4544A8",
"n  c #5147A9",
"m  c #4C43BD",
"M  c #4546B8",
"N  c #5245BE",
"B  c #5A50B6",
"V  c #665DBF",
"C  c #4868AB",
"Z  c #5869A7",
"A  c #4471AB",
"S  c #5E74AA",
"D  c #4D63B9",
"F  c #537CB2",
"G  c #5875B7",
"H  c #5374B5",
"J  c #6775A9",
"K  c #6579B4",
"L  c #7876B8",
"P  c #6C74A6",
"I  c #2E1EC1",
"U  c #2F20C2",
"Y  c #3222C4",
"T  c #3B2DC4",
"R  c #3424C9",
"E  c #3629CB",
"W  c #3A2CCB",
"Q  c #3E30C3",
"!  c #3C31CB",
"~  c #3632C7",
"^  c #3A2BD2",
"/  c #4335C3",
"(  c #4539C2",
")  c #4B3DC5",
"_  c #4234CB",
"`  c #493DCA",
"'  c #4739CA",
"]  c #483BD4",
"[  c #4E41C3",
"{  c #4A4EC6",
"}  c #5144C3",
"|  c #564AC2",
" . c #5A4EC4",
".. c #5346CB",
"X. c #564ACB",
"o. c #5A4ECB",
"O. c #5E53C3",
"+. c #5D53CB",
"@. c #5D58CC",
"#. c #4E40D1",
"$. c #5A4DD3",
"%. c #554AD3",
"&. c #5E55D3",
"*. c #6256C6",
"=. c #6459C5",
"-. c #655ACC",
";. c #695FCB",
":. c #6459C7",
">. c #6356D2",
",. c #6559D4",
"<. c #665ADA",
"1. c #6A5FDC",
"2. c #4F63C1",
"3. c #5C71C0",
"4. c #6C63C6",
"5. c #6D63CB",
"6. c #656EC4",
"7. c #756CCC",
"8. c #796FCE",
"9. c #7067C9",
"0. c #6A79C6",
"q. c #7C73CD",
"w. c #7E76C1",
"e. c #6E63D4",
"r. c #6B65D7",
"t. c #746BD1",
"y. c #756BDC",
"u. c #786EDB",
"i. c #7D73D3",
"p. c #7B72DC",
"a. c #7470D1",
"s. c #7D75E2",
"d. c #837FB5",
"f. c #827ACF",
"g. c #8077CF",
"h. c #847CD2",
"j. c #857CD8",
"k. c #837BE2",
"l. c #887EE1",
"z. c #5B83B6",
"x. c #6A88AC",
"c. c #6488B9",
"v. c #6A8DBE",
"b. c #6687B4",
"n. c #748BB2",
"m. c #7C8EBD",
"M. c #6D90BF",
"N. c #7191BD",
"B. c #7996BE",
"V. c #7689AB",
"C. c #7787C8",
"Z. c #7493C2",
"A. c #7B9AC4",
"S. c #7C96C7",
"D. c #6D87C2",
"F. c #838383",
"G. c #808CB1",
"H. c #8398B4",
"J. c #9099B0",
"K. c #94A4BD",
"L. c #95A3B6",
"P. c #A7A7A7",
"I. c #8799CA",
"U. c #8A82D3",
"Y. c #8A82D9",
"T. c #938CD6",
"R. c #938BDB",
"E. c #9A95D5",
"W. c #9B95D9",
"Q. c #9A94DA",
"!. c #939CC0",
"~. c #A29CDB",
"^. c #A19DCD",
"/. c #82A0C7",
"(. c #8BA6CC",
"). c #89A3C6",
"_. c #92ADCE",
"`. c #96AAC3",
"'. c #96AED0",
"]. c #90A2D1",
"[. c #9DB4D3",
"{. c #97B1D1",
"}. c #B1AFCF",
"|. c #A5B5CC",
" X c #A6B3C5",
".X c #A6A0DD",
"XX c #AAA4DD",
"oX c #AEA9DF",
"OX c #ABA8D4",
"+X c #B1ACDF",
"@X c #A4B9D6",
"#X c #BAB8D6",
"$X c #B0B3C8",
"%X c #8E86E4",
"&X c #938BE4",
"*X c #948BE9",
"=X c #9C94E5",
"-X c #9B94E5",
";X c #A19AE2",
":X c #A39CEC",
">X c #ACA6E3",
",X c #AEA9E2",
"<X c #ACA6EB",
"1X c #A6A0E1",
"2X c #B3AEE5",
"3X c #B2ACEC",
"4X c #B9B5E3",
"5X c #BDB9E5",
"6X c #BEB9E8",
"7X c #B8B3EE",
"8X c #B4AEF0",
"9X c #C2BEE9",
"0X c #C3BFE7",
"qX c #C2BEF1",
"wX c #AEC2DC",
"eX c #AFC1D7",
"rX c #B3C5DD",
"tX c #B7C7DB",
"yX c #BACAE0",
"uX c #B8C6E1",
"iX c #C5C5C5",
"pX c #C8C5DF",
"aX c #D4D6DA",
"sX c #C5C1EA",
"dX c #C9C6E9",
"fX c #CECAEE",
"gX c #C7CAE4",
"hX c #C4D3E5",
"jX c #CDD9E9",
"kX c #CCD7E8",
"lX c #D5D2EE",
"zX c #D2DDEC",
"xX c #CBC8F2",
"cX c #D5D2F3",
"vX c #DDDBF5",
"bX c #D9D7F2",
"nX c #D3CFF4",
"mX c #E1DFF6",
"MX c #D6E0ED",
"NX c #DBE4EE",
"BX c #D6E3F1",
"VX c #DBE6F2",
"CX c #DEE9F4",
"ZX c #E6E9EC",
"AX c #E4ECF5",
"SX c #E9EFF6",
"DX c #EEEDFB",
"FX c #E5E3F7",
"GX c #F0EFF9",
"HX c #EBF1F7",
"JX c #EDF3F9",
"KX c #F2F5FA",
"LX c #F6F9FB",
"PX c #FEFEFF",
"IX c #F3F3F3",
"UX c None",
/* pixels */
"UXUXUXUXUXUXUXUXUXUXUXUXUXUXUXUXUXUXUXUXUXUXUXUXUXUXUXUXv.@X_.UXUXF UX/.A UXUXUXUXUXUXUXUXUXUXUX",
"UXUXUXUXUXUXUXUXUXUXUXUXUXUXUXUXUXUXUXUXUXUXUXUXUXUXUX/.PXKXPXyX[.zXHXNXtXA.j UXUXUXUXUXUXUXUXUX",
"UXUXUXUXUXUXUXUXUXUXUXUXUXUXUXUXUXUXUXUXUXUXUXUXUXUXUXHXAXSXPXPXPXLXJXPXPXPXzX{.UXUXUXUXUXUXUXUX",
"UXUXUXUXUXUXUXUXUXUXUXUXUXUXUXUXUXUXUXUXUXUXUXz.A.[.jXPXJXPXPXPXPXHXVXPXPXPXPXPXrXUXUXUXUXUXUXUX",
"UXUXUXUXUXUXUXUXUXUXUXUXUXUXUXM.[.yXkXNXAXHXPXPXPXPXPXPXPXPXPXPXPXLXCXPXPXPXPXJXLXtXLXKX_.UXUXUX",
"UXUXUXUXUXUXUXUXUXUXUXUXUXA.CXPXPXPXPXPXPXPXPXPXPXPXPXPXPXPXPXPXPXPXLXPXPXPXCXKXPXPXKXJXPXv.UXUX",
"UXUXUXUXUXUXUXUXUXUXUXUX@XPXPXPXPXPXPXPXPXPXPXPXPXPXPXPXPXPXZX$XPXPXPXPXHXAXHXPXPXPXPXJXJX@XUXUX",
"UXUXUXUXUXUXUXUXUXUXUX_.PXPXPXPXPXPXLXJXHXAXNXMXVXAXSXLXPXPXo , L.PXPXJXCXKXPXPXPXPXPXLXJX_.UXUX",
"UXUXUXUXUXUXUXUXUXUXc.LXPXPXPXLXDXzX`.x.Z Z J K J S K eXPXPXX   H.PXPXPXPXZXJ.IXPXPXPXJXLXz.UXUX",
"UXUXUXUXUXUXUXUXUXUXyXPXPXPXIXtXS 2 w.OX#XgXfXpXsX#XOX!.KXLXIXZXCXPXPXPXJX$ > F.PXPXPXPXI.UXUXUX",
"UXUXUXUXUXUXUXUXUXUXLXPXPXNXx.1 V ~.2X4X9X0XdXdXdXdX0XG.HXKXPXPXPXPXPXPXVX:   P.PXPXPX[.UXUXUXUX",
"UXUXUXUXUXUXUXUXUXA.PXPXNXd 1 q.T.E.~.XX+X4X5X5X4X+X+XI.AXVXKXPXPXPXPXPXPXPXLXPXPXPXA.UXUXUXUXUX",
"UXUXUXUXUXUXUXUXUX@XPXPX X< 9.f.h.T.E.~.XXoXoXoXoXoX.XE.K.NXCXHXPXPXPXPXPXPXPXJXLX(.UXUXUXUXUXUX",
"UXUXUXUXUXUXUXUXUXrXPXPXK.n V 7.4XT.T.T.W.W..X.X.X.XW.E.P jXBXJXPXPXPXPXPXJXAXJXtXUXUXUXUXUXUXUX",
"UXUXUXUXUXUXUXUXUXyXPXPXK.n =.9.lXf.f.T.E..XXXoXoXXXW.E.w.c SXiXX % P.JXjXBXAXyXUXUXUXUXUXUXUXUX",
"UXUXUXUXUXUXUXUX; yXPXPXL.i *.q.f.lXlXOXoX.X.X.X.X.X.XoX,Xd.L.IX. X > PXCXzXx.UXUXUXUXUXUXUXUXUX",
"UXUXUXUXUXUXUXUX! uXPXPXK.n T.q.oXKXGXW.f.h.U.U.h.h.f.g.w.q.c H.aXiXGXgXK 9 E UXUXUXUXUXUXUXUXUX",
"UXUXUXUXUXUXUXg R #XPXPX$XJ.IXh.4.4X9Xg.q.g.f.f.f.f.q.8.4.;.B l J.V.v 1 3 5 R u UXUXUXUXUXUXUXUX",
"UXUXUXUXUXUXUX^ I @XPXLXtXc oXN B =.g.T.8.q.g.g.f.q.7.9.;.*.B a n L i B q.5 7 E # UXUXUXUXUXUXUX",
"UXUXUXUXUXUXf R 7 '.PXGXgX= p a }  .;.T.U.8.8.8.q.q.7.4.;.*.B a *.fX2Xr 9Xp 5 R g UXUXUXUXUXUXUX",
"UXUXUXUXUXUXQ I 4 C.LXJXtXx r s N  .*.h.~.f.g.g.g.8.9.5.=. .a s h.GXDXa 4 5 p I T UXUXUXUXUXUXUX",
"UXUXUXUXUXUX^ q 5 H VXMXrXf 0 r a } *.9.~.~.f.h.g.i.7.5.*.| | =.-.~.>X4 4 4 4 T ^ * UXUXUXUXUXUX",
"UXUXUXUXUX; E 0 6 9 eXrX|.1 0 e s } *.;.Y.>XW.j.h.g.8.;.5.g.8.=.p 0 i.6 4 5 4 7 E = UXUXUXUXUXUX",
"UXUXUXUXUXd E 7 6 6 C J l 8 r t a } O.;.g.,X9X;X~.h.g.T.R.j.:.p w 0 8.T 6 6 4 6 Y v UXUXUXUXUXUX",
"UXUXUXUXUXh Y 6 4 7 7 M | q e ( ) | -.5.i.2XvXvXfX9X2X;XR.*.) s e w 5.p 7 7 6 7 R y UXUXUXUXUXUX",
"UXUXUXUXUXb R 7 7 7 7 X.X.q e p [  .-.t.U.9XDXPXLXFX9Xj.;. .) ( e w e.( 7 7 7 7 I h UXUXUXUXUXUX",
"UXUXUXUXUXh R 7 7 7 7 +.| T t ( } o.;.t.R.fXLXPXPXmX>Xt.;.O.} ) / w e./ 7 7 7 7 R t UXUXUXUXUXUX",
"UXUXUXUXUXh R 7 7 I U +.G c.v.D m o.-.8.;XbXGXLXLXnX;Xt.;.o.) s e w t.p 7 U 7 7 R y UXUXUXUXUXUX",
"UXUXUXUXUXk E I I I I D z.j z.N./.G a.;X>X6XsXcXmXfXj.5.>.o.) ( / T t.Y U I 9 U E v UXUXUXUXUXUX",
"UXUXUXUXUX- ^ I I Y I 2.A F z.N.(.@X{.C.j.i.R.=X3X2Xj.,.+...) / T ` >.Y U Y I U E k UXUXUXUXUXUX",
"UXUXUXUXUXUX^ Y 9 Y R M z.z.M./.@XtXjXjX(.6.i.p.g.;X;X;.>...) _ T X.X.Y Y R R U ^ # UXUXUXUXUXUX",
"UXUXUXUXUXUX_ W U U R ~ A.N./.{.wXjXMXAXHXFXS.7.j.j.;Xj.-.o...) Q >.' Y E E U E M UXUXUXUXUXUXUX",
"UXUXUXUXUXUXk ^ ` Y R y.kX(._.rXhXMXSXKXLXPXPXzXD.a.&XQ.e.>.+.....1.T _ ! U R E A.UXUXUXUXUXUXUX",
"UXUXUXUXUXUXUX^ R ..R.<.xX].{.hXNXAXIXPXPXPXPXPXPXyX0.-Xj.r.>.&.r.<.$.] E U R 2.wXUXUXUXUXUXUXUX",
"UXUXUXUXUXUXUXz ^ R <Xp.<.&XG uXSXKXLXPXPXPXPXPXPXPXLXrXC.p.r.p.3Xy.$.] ! E ~ yX_.UXUXUXUXUXUXUX",
"UXUXUXUXUXUXUXUX! ^ ` %.k.cXGX0.hXLXPXPXPXPXPXPXPXPXPXPXLXuXC.xXLX-X>.%.#.! I.JXc.UXUXUXUXUXUXUX",
"UXUXUXUXUXUXUXUX- ^ ] $.<.7XDX3XC.}.PXPXPXPXPXPXPXPXPXPXPXLXJXwXI.r.<.$.{ I.SXhXUXUXUXUXUXUXUXUX",
"UXUXUXUXUXUXUXUXUXv ] <.e.y.-X*X=XE.n.AXPXPXPXPXPXPXPXPXLXLXLXJXJXkX@X@XjXAXCXZ.UXUXUXUXUXUXUXUX",
"UXUXUXUXUXUXUXUXUXUXM $.y.p.l.<X-X:XW.n.K.KXPXLXLXLXLXLXKXJXJXSXAXAXCXCXVXVX{.UXUXUXUXUXUXUXUXUX",
"UXUXUXUXUXUXUXUXUXUXUXv <.l.%X-X<X<X8X7X^.P `.AXLXLXKXJXJXAXAXAXCXVXVXBXBX[.UXUXUXUXUXUXUXUXUXUX",
"UXUXUXUXUXUXUXUXUXUXUXUXz 1.*X:X3X8X7XqXxX9X}.G.n.|.jXCXZXCXVXBXBXMXMXwXv.UXUXUXUXUXUXUXUXUXUXUX",
"UXUXUXUXUXUXUXUXUXUXUXUXUX* %.*X8X6XsXxXnXvXvXbXpX#X!.n.n.N.B.A.c.x.A UXUXUXUXUXUXUXUXUXUXUXUXUX",
"UXUXUXUXUXUXUXUXUXUXUXUXUXUXUX- @.%XqXcXvXmXDXDXJXFXbXfX7X%X&.= UXUXUXUXUXUXUXUXUXUXUXUXUXUXUXUX",
"UXUXUXUXUXUXUXUXUXUXUXUXUXUXUXUXUX@ z @.s.*X:X<X<X*Xk.&.z @ UXUXUXUXUXUXUXUXUXUXUXUXUXUXUXUXUXUX",
"UXUXUXUXUXUXUXUXUXUXUXUXUXUXUXUXUXUXUXUXUXO + & + O UXUXUXUXUXUXUXUXUXUXUXUXUXUXUXUXUXUXUXUXUXUX",
"UXUXUXUXUXUXUXUXUXUXUXUXUXUXUXUXUXUXUXUXUXUXUXUXUXUXUXUXUXUXUXUXUXUXUXUXUXUXUXUXUXUXUXUXUXUXUXUX",
"UXUXUXUXUXUXUXUXUXUXUXUXUXUXUXUXUXUXUXUXUXUXUXUXUXUXUXUXUXUXUXUXUXUXUXUXUXUXUXUXUXUXUXUXUXUXUXUX",
"UXUXUXUXUXUXUXUXUXUXUXUXUXUXUXUXUXUXUXUXUXUXUXUXUXUXUXUXUXUXUXUXUXUXUXUXUXUXUXUXUXUXUXUXUXUXUXUX"
};
