/* XPM */
static char *mozicon__[] = {
/* columns rows colors chars-per-pixel */
"48 48 256 2",
"   c #0A0A0A",
".  c #181818",
"X  c #3D3D3D",
"o  c #2C2C2C",
"O  c #3A6D15",
"+  c #3F6B3C",
"@  c #406C3A",
"#  c #497C3A",
"$  c #2A3948",
"%  c #4E4E4E",
"&  c #416948",
"*  c #467546",
"=  c #445C7B",
"-  c #46656B",
";  c #426662",
":  c #57626F",
">  c #6A6A6A",
",  c #707070",
"<  c #251C8B",
"1  c #2E2898",
"2  c #333798",
"3  c #2012A2",
"4  c #2616B4",
"5  c #2718B4",
"6  c #2A1BB5",
"7  c #2B1BBC",
"8  c #2718B8",
"9  c #2F21AD",
"0  c #2C25B2",
"q  c #3325B7",
"w  c #3426BA",
"e  c #3628BD",
"r  c #3A2CBB",
"t  c #392BB6",
"y  c #3E31BD",
"u  c #3E3CB7",
"i  c #3C3FA6",
"p  c #443AA9",
"a  c #4235BD",
"s  c #4A3DBE",
"d  c #4438BD",
"f  c #3B4688",
"g  c #3E4897",
"h  c #3F5383",
"j  c #3F46A0",
"k  c #425688",
"l  c #454697",
"z  c #475598",
"x  c #536B95",
"c  c #64639D",
"v  c #444CA3",
"b  c #4544A8",
"n  c #5147A9",
"m  c #4944BA",
"M  c #5245BE",
"N  c #5A50B6",
"B  c #665DBF",
"V  c #4F61AD",
"C  c #5869A7",
"Z  c #4471AB",
"A  c #5E74AA",
"S  c #4E63BA",
"D  c #5367BB",
"F  c #547DB3",
"G  c #5974BA",
"H  c #4F7AB0",
"J  c #6775A9",
"K  c #6678B4",
"L  c #7876B8",
"P  c #6C74A6",
"I  c #2E1EC1",
"U  c #2F20C2",
"Y  c #3222C4",
"T  c #3B2DC4",
"R  c #3424C9",
"E  c #3629CB",
"W  c #3A2CCB",
"Q  c #3E30C3",
"!  c #3A31CA",
"~  c #3A2BD2",
"^  c #4335C3",
"/  c #4539C2",
"(  c #4B3DC5",
")  c #4234CB",
"_  c #493DCA",
"`  c #4739CA",
"'  c #483BD4",
"]  c #3E43C3",
"[  c #4D42C3",
"{  c #4A4DC6",
"}  c #5144C3",
"|  c #564AC2",
" . c #5A4EC4",
".. c #5346CB",
"X. c #564ACB",
"o. c #5A4ECB",
"O. c #5E53C3",
"+. c #5D53CC",
"@. c #5D58CC",
"#. c #4E40D1",
"$. c #5A4DD4",
"%. c #554AD3",
"&. c #5E54D3",
"*. c #6256C6",
"=. c #6459C5",
"-. c #655ACC",
";. c #695FCB",
":. c #6459C7",
">. c #6356D2",
",. c #6559D4",
"<. c #665ADA",
"1. c #6A5FDC",
"2. c #566AC1",
"3. c #6C63C6",
"4. c #6D63CB",
"5. c #656EC4",
"6. c #756CCC",
"7. c #796FCE",
"8. c #7067C9",
"9. c #6B79C6",
"0. c #7C73CD",
"q. c #7E76C1",
"w. c #6E63D4",
"e. c #6B65D7",
"r. c #746BD2",
"t. c #756BDC",
"y. c #786EDB",
"u. c #7D73D3",
"i. c #7B72DC",
"p. c #7D75E2",
"a. c #827EB5",
"s. c #827ACF",
"d. c #8077CF",
"f. c #847CD2",
"g. c #857CD8",
"h. c #837BE2",
"j. c #887EE1",
"k. c #5B83B6",
"l. c #6A89AB",
"z. c #6388B9",
"x. c #6A8CBD",
"c. c #6687B4",
"v. c #748BB2",
"b. c #7D8EBD",
"n. c #6D90BE",
"m. c #7191BD",
"M. c #7996BE",
"N. c #7689AB",
"B. c #7787C8",
"V. c #7493C2",
"C. c #7B9AC4",
"Z. c #7C96C7",
"A. c #6D87C2",
"S. c #838383",
"D. c #8398B4",
"F. c #8C95AF",
"G. c #94A3BD",
"H. c #95A3B7",
"J. c #A7A7A7",
"K. c #8699CA",
"L. c #8A82D3",
"P. c #8A82D9",
"I. c #938CD6",
"U. c #938BDB",
"Y. c #9A95D5",
"T. c #9B95D9",
"R. c #9A94DA",
"E. c #939CC0",
"W. c #A29CDB",
"Q. c #A19DCD",
"!. c #82A0C7",
"~. c #85A3C9",
"^. c #8AA6CC",
"/. c #8DA9CC",
"(. c #92ACCE",
"). c #94A7C3",
"_. c #96AED0",
"`. c #95A4D3",
"'. c #9CB4D3",
"]. c #96B0D0",
"[. c #B1AFCF",
"{. c #A5B5CC",
"}. c #A5B3C5",
"|. c #A6A0DD",
" X c #AAA4DD",
".X c #AEA9DF",
"XX c #ABA8D4",
"oX c #B1ACDF",
"OX c #A0B7D5",
"+X c #A2B9D6",
"@X c #A8BAD8",
"#X c #BAB8D6",
"$X c #B0B3C8",
"%X c #8E86E4",
"&X c #938BE4",
"*X c #948BE9",
"=X c #9C94E5",
"-X c #9B94E5",
";X c #A19AE2",
":X c #A39CEC",
">X c #ACA6E3",
",X c #AEA9E2",
"<X c #ACA6EB",
"1X c #A6A0E1",
"2X c #B3AEE5",
"3X c #B2ACEC",
"4X c #B9B5E3",
"5X c #BDB9E5",
"6X c #BEB9E8",
"7X c #B8B3EE",
"8X c #B4AEF0",
"9X c #C2BEE9",
"0X c #C3BFE7",
"qX c #C2BEF1",
"wX c #AEC2DC",
"eX c #AFC1D7",
"rX c #B3C4DD",
"tX c #B7C8DB",
"yX c #BACAE1",
"uX c #B8C6E1",
"iX c #C5C5C5",
"pX c #C8C5DF",
"aX c #D4D6DA",
"sX c #C5C1EA",
"dX c #C9C6E9",
"fX c #CECAEE",
"gX c #C7CAE4",
"hX c #C4D3E5",
"jX c #CDDAE9",
"kX c #CCD7E9",
"lX c #D5D2EE",
"zX c #D2DDEC",
"xX c #CBC8F2",
"cX c #D5D2F3",
"vX c #DDDBF5",
"bX c #D9D7F2",
"nX c #D3CFF4",
"mX c #E1DFF6",
"MX c #D6E0ED",
"NX c #DAE4EE",
"BX c #D6E3F1",
"VX c #DBE6F2",
"CX c #DEE9F4",
"ZX c #E6E9EC",
"AX c #E4ECF5",
"SX c #E9EFF6",
"DX c #EEEDFB",
"FX c #E5E3F7",
"GX c #F0EFF9",
"HX c #EBF1F7",
"JX c #EDF3F9",
"KX c #F2F5FA",
"LX c #F6F9FB",
"PX c #FEFEFF",
"IX c #F3F3F3",
"UX c None",
/* pixels */
"UXUXUXUXUXUXUXUXUXUXUXUXUXUXUXUXUXUXUXUXUXUXUXUXUXUXUXUXx.OX(.UXUXk.UX~.Z UXUXUXUXUXUXUXUXUXUXUX",
"UXUXUXUXUXUXUXUXUXUXUXUXUXUXUXUXUXUXUXUXUXUXUXUXUXUXUX!.PXKXLXhX'.zXHXNXtXC.UXUXUXUXUXUXUXUXUXUX",
"UXUXUXUXUXUXUXUXUXUXUXUXUXUXUXUXUXUXUXUXUXUXUXUXUXUXUXJXAXHXPXPXPXLXJXPXPXPXzX'.UXUXUXUXUXUXUXUX",
"UXUXUXUXUXUXUXUXUXUXUXUXUXUXUXUXUXUXUXUXUXUXUXk.C.'.jXPXJXPXPXPXPXHXVXPXPXPXPXPXrXUXUXUXUXUXUXUX",
"UXUXUXUXUXUXUXUXUXUXUXUXUXUXUXn.'.yXkXNXAXHXPXPXPXPXPXPXLXPXPXPXPXLXCXPXPXPXPXJXLXtXLXKX/.UXUXUX",
"UXUXUXUXUXUXUXUXUXUXUXUXUXK.NXPXPXPXPXPXPXPXPXPXPXPXPXPXPXPXPXPXPXPXLXPXPXPXCXKXPXPXKXJXPXn.UXUX",
"UXUXUXUXUXUXUXUXUXUXUXUXOXPXPXPXPXPXPXPXPXPXPXPXPXPXPXPXPXPXZX$XPXPXPXPXHXAXHXPXPXPXPXJXJX'.UXUX",
"UXUXUXUXUXUXUXUXUXUXUX(.PXPXPXPXPXPXLXJXHXAXNXMXVXAXSXLXPXPXo , H.PXPXJXCXKXPXPXPXPXPXLXJX].UXUX",
"UXUXUXUXUXUXUXUXUXUXz.LXPXPXPXPXKXzX).v.C C K P J A J @XPXPXX   D.PXPXPXPXZXF.IXPXPXPXKXLXk.UXUX",
"UXUXUXUXUXUXUXUXUXUXyXPXPXPXJXtXA 2 q.XX#XdXfXdXsX#XXXE.KXLXIXZXCXPXPXPXJX$ > S.PXPXPXPX!.UXUXUX",
"UXUXUXUXUXUXUXUXUXUXLXPXPXNXN.1 B W.oX4X0X0X0XfXdXdX0XD.JXKXPXPXPXPXPXPXVX:   J.PXPXPX'.UXUXUXUX",
"UXUXUXUXUXUXUXUXUXC.PXPXNXf 1 0.I.T.W. X.X4X#X0X4XoXoXK.AXVXKXPXPXPXPXPXPXPXLXPXPXPXC.UXUXUXUXUX",
"UXUXUXUXUXUXUXUXUXOXPXPX}.< B s.s.I.Y.W.W..X.XoX.X XW.Q.G.CXVXJXPXPXPXPXPXPXPXJXLX^.UXUXUXUXUXUX",
"UXUXUXUXUXUXUXUXUXrXPXPXG.n 3.6.4XI.I.Y.W.W.W.W.W.W.W.Y.c MXBXJXPXPXPXPXPXJXAXHXyXUXUXUXUXUXUXUX",
"UXUXUXUXUXUXUXUXUXyXPXPXG.n =.8.lXs.s.L.Y.W. X.X.X XW.I.d.x SXiXX % J.JXkXBXAXyXUXUXUXUXUXUXUXUX",
"UXUXUXUXUXUXUXUX; yXPXPXH.p *.0.s.lXlX X X X X XW. X X.XoXa.G.HX. X > PXVXBXl.UXUXUXUXUXUXUXUXUX",
"UXUXUXUXUXUXUXUXW uXPXPXG.n I.d..XKXGXY.d.s.L.L.s.f.d.d.7.d.c F.aXiXKXgXK 6 W UXUXUXUXUXUXUXUXUX",
"UXUXUXUXUXUXUXg R #XPXPX$XF.IXs.3.4X0Xd.d.d.s.s.s.s.d.6.8.B N l F.N.z 1 3 8 Y i UXUXUXUXUXUXUXUX",
"UXUXUXUXUXUXUXW U +XPXLXtXc .XM  .*.d.I.7.0.0.d.s.0.6.6.3.*.N M p a.p N 0.5 7 E # UXUXUXUXUXUXUX",
"UXUXUXUXUXUXh R 8 _.PXGXgX= a s M O.;.I.L.7.7.d.d.7.6.3.=.*.M s  .fX2Xa 9Xa 8 R g UXUXUXUXUXUXUX",
"UXUXUXUXUXUXy U 8 V.LXJXtXx t d M N *.f.W.f.d.d.u.7.6.4.=. .M d f.GXDXs 4 5 a 7 W UXUXUXUXUXUXUX",
"UXUXUXUXUXUX~ I 6 D NXMXrXh q t ( | *.8.W.W.d.f.f.7.6.3.*.| | *.;.;X>X5 4 4 4 T ~ # UXUXUXUXUXUX",
"UXUXUXUXUX- E 7 6 0 rXrX{.1 q r a } O.;.P.>XT.g.f.0.6.;.3.u.7.=.a 9 u.q 5 5 4 7 E h UXUXUXUXUXUX",
"UXUXUXUXUXk E 0 5 6 V J l 9 t y s } O.;.d.>X9X;XT.g.f.I.U.g.:.a e q r.e 5 7 4 4 R j UXUXUXUXUXUX",
"UXUXUXUXUXj R 7 8 8 7 m  .w r / ( | -.4.d.2XvXvXlX9X2X;XU.*.( d r e 8./ 8 8 7 7 R j UXUXUXUXUXUX",
"UXUXUXUXUXb R 7 8 7 7 X.| e r d }  .-.r.g.9XGXLXLXFX9Xg.;. .[ / r e w./ 7 7 7 7 R u UXUXUXUXUXUX",
"UXUXUXUXUXj R 7 8 I I +.X.e Q / }  .;.r.U.nXLXPXPXmX>Xr.;. .} / a e 4.^ 7 7 7 7 I Q UXUXUXUXUXUX",
"UXUXUXUXUXj R 7 7 I I X.G z.x.S [ X.-.7.;XbXGXLXLXcX;Xr.-.o.} / T e r.^ U U 7 7 R u UXUXUXUXUXUX",
"UXUXUXUXUXz R I I I U 2.H Z k.n.!.K r.-X<X6XsXcXmXfXg.w.-.X.( ` Q Q r.Y U I I w E v UXUXUXUXUXUX",
"UXUXUXUXUX- ~ I I U U S Z H k.m.^.@X'.A.d.u.U.;X2X2Xg.-.>.} ( / T _ >.Y U I I Y E k UXUXUXUXUXUX",
"UXUXUXUXUXUX~ R 0 R Y m z.k.n.~.'.rXjXjX^.5.i.u.d.:X;X-.>...( ) T X.X.Y Y R Y U ~ * UXUXUXUXUXUX",
"UXUXUXUXUXUX! W U U R ! C.m.~.].rXkXMXSXJXAXZ.r.d.g.;Xg.-.o...( Q >.` R R T w E ] UXUXUXUXUXUXUX",
"UXUXUXUXUXUXk ~ _ R R y.kX~.(.rXhXzXGXKXPXPXPXzXA.r.&XR.w.>.+.....e.W ) ) Y U E C.UXUXUXUXUXUXUX",
"UXUXUXUXUXUXUX~ R ..P.1.nX`.'.hXNXAXIXLXPXPXPXPXPXyX9.-Xg.e.>.&.e.,.$.' E U R 2.wXUXUXUXUXUXUXUX",
"UXUXUXUXUXUXUXz ~ R <Xi.<.&X2.tXSXKXLXPXPXPXPXPXPXPXPXwXB.y.e.y.3Xt.$.' ! E ! yX_.UXUXUXUXUXUXUX",
"UXUXUXUXUXUXUXUX! ~ ` %.h.cXKX9.hXLXPXPXPXPXPXPXPXPXPXPXPXrXB.xXLX-X>.%.#.! Z.JXz.UXUXUXUXUXUXUX",
"UXUXUXUXUXUXUXUX- ~ ' $.,.7XDX3XB.@XPXPXPXPXPXPXPXPXPXPXPXLXKXwXK.e.<.$.{ K.SXhXUXUXUXUXUXUXUXUX",
"UXUXUXUXUXUXUXUXUXv ' <.e.t.-X*X=XT.v.ZXPXPXPXPXPXPXPXPXLXLXLXJXJXkX@X@XjXCXCXV.UXUXUXUXUXUXUXUX",
"UXUXUXUXUXUXUXUXUXUXm $.t.i.j.<X-X:XR.v.G.KXPXPXLXLXLXLXKXJXJXJXSXAXCXCXCXVX'.UXUXUXUXUXUXUXUXUX",
"UXUXUXUXUXUXUXUXUXUXUXv <.j.%X=X<X<X3X7XQ.P G.FXLXLXKXJXJXAXAXCXVXVXVXBXBX'.UXUXUXUXUXUXUXUXUXUX",
"UXUXUXUXUXUXUXUXUXUXUXUXz 1.*X:X3X8X7XqXxX9X[.D.v.{.jXCXCXVXVXNXMXMXzXwXx.UXUXUXUXUXUXUXUXUXUXUX",
"UXUXUXUXUXUXUXUXUXUXUXUXUX* %.*X8X6XsXxXnXvXvXbXgX#XE.v.v.m.M.C.x.l.Z UXUXUXUXUXUXUXUXUXUXUXUXUX",
"UXUXUXUXUXUXUXUXUXUXUXUXUXUXUX- @.%XqXcXvXmXDXDXDXFXbXfX5X%X&.= UXUXUXUXUXUXUXUXUXUXUXUXUXUXUXUX",
"UXUXUXUXUXUXUXUXUXUXUXUXUXUXUXUXUX@ z @.p.*X:X<X<X*Xh.&.z @ UXUXUXUXUXUXUXUXUXUXUXUXUXUXUXUXUXUX",
"UXUXUXUXUXUXUXUXUXUXUXUXUXUXUXUXUXUXUXUXUXO & & + O UXUXUXUXUXUXUXUXUXUXUXUXUXUXUXUXUXUXUXUXUXUX",
"UXUXUXUXUXUXUXUXUXUXUXUXUXUXUXUXUXUXUXUXUXUXUXUXUXUXUXUXUXUXUXUXUXUXUXUXUXUXUXUXUXUXUXUXUXUXUXUX",
"UXUXUXUXUXUXUXUXUXUXUXUXUXUXUXUXUXUXUXUXUXUXUXUXUXUXUXUXUXUXUXUXUXUXUXUXUXUXUXUXUXUXUXUXUXUXUXUX",
"UXUXUXUXUXUXUXUXUXUXUXUXUXUXUXUXUXUXUXUXUXUXUXUXUXUXUXUXUXUXUXUXUXUXUXUXUXUXUXUXUXUXUXUXUXUXUXUX"
};
