/* XPM */
static char *mozicon__[] = {
/* columns rows colors chars-per-pixel */
"16 16 153 2",
"   c #3A5456",
".  c #435F73",
"X  c #475B7D",
"o  c #2819B6",
"O  c #291BBB",
"+  c #2D1EBB",
"@  c #2B1BBD",
"#  c #3D3EA9",
"$  c #3021B4",
"%  c #342BB7",
"&  c #3227BB",
"*  c #362FBC",
"=  c #3730B7",
"-  c #4538BD",
";  c #483CBF",
":  c #3D4E87",
">  c #4346AF",
",  c #444EB6",
"<  c #4B40BA",
"1  c #5447BF",
"2  c #5963A7",
"3  c #5661A9",
"4  c #5C67AF",
"5  c #6671A7",
"6  c #717EAD",
"7  c #696BBC",
"8  c #2D1EC0",
"9  c #2E1FC2",
"0  c #3324C4",
"q  c #3326C5",
"w  c #372CC1",
"e  c #3A2CC0",
"r  c #3C36C3",
"t  c #3E3BC3",
"y  c #4235C0",
"u  c #4537C4",
"i  c #4538C0",
"p  c #4C3FC4",
"a  c #473ACA",
"s  c #4A3EC8",
"d  c #4E41C3",
"f  c #4B42C8",
"g  c #4C40C8",
"h  c #5347C2",
"j  c #5C50D6",
"k  c #675DC7",
"l  c #6358CC",
"z  c #665AD4",
"x  c #695FD1",
"c  c #6561CF",
"v  c #7167CC",
"b  c #7267CC",
"n  c #736ACF",
"m  c #7776C9",
"M  c #7A71CD",
"N  c #7D73CE",
"B  c #7369D0",
"V  c #7278D2",
"C  c #7B75D9",
"Z  c #857ECC",
"A  c #8078D0",
"S  c #8178D0",
"D  c #8177DF",
"F  c #7D838A",
"G  c #7E88A7",
"H  c #6187B9",
"J  c #7F9CBE",
"K  c #7D85CA",
"L  c #7D9BC5",
"P  c #949AA0",
"I  c #9098AC",
"U  c #899AC5",
"Y  c #819AC8",
"T  c #8286D0",
"R  c #8584D5",
"E  c #8F8DD7",
"W  c #9189D3",
"Q  c #9088D4",
"!  c #9089D5",
"~  c #928BD6",
"^  c #978FD5",
"/  c #9891D6",
"(  c #9296DA",
")  c #9991D9",
"_  c #9A93D8",
"`  c #9A97DC",
"'  c #99A2C7",
"]  c #9BA7CB",
"[  c #9EB5D3",
"{  c #9DB3D6",
"}  c #AAA5D6",
"|  c #A6A0DC",
" . c #AAA4DD",
".. c #A2AFDA",
"X. c #ABBAD0",
"o. c #A8BED7",
"O. c #ADBDD6",
"+. c #A9B9DB",
"@. c #ADB9DD",
"#. c #BCB8DD",
"$. c #A69FE8",
"%. c #BBB6EA",
"&. c #C1BDEF",
"*. c #AEC0DA",
"=. c #B5C3D4",
"-. c #B7C5D9",
";. c #B3C5DC",
":. c #B8C9DF",
">. c #BBCBDE",
",. c #BDCDE1",
"<. c #BDCDE4",
"1. c #C9CED4",
"2. c #DADBDC",
"3. c #C5C2E5",
"4. c #C0CFE1",
"5. c #C8C4ED",
"6. c #C5D3E6",
"7. c #C9D2E1",
"8. c #C8D4E6",
"9. c #CBD7E7",
"0. c #CDD8E6",
"q. c #CFDBEA",
"w. c #D3D9E5",
"e. c #D2DCEA",
"r. c #D4DEED",
"t. c #DDDAF4",
"y. c #DAE1EB",
"u. c #D8E2ED",
"i. c #DBE2ED",
"p. c #D8E2EE",
"a. c #DEE3EC",
"s. c #DDE4EE",
"d. c #DFE7F0",
"f. c #ECECEC",
"g. c #E3EBF6",
"h. c #E6ECF4",
"j. c #E5EDF6",
"k. c #EDECF9",
"l. c #EEF3F6",
"z. c #ECF2F8",
"x. c #EFF5FA",
"c. c #F0F3F7",
"v. c #F1F4F8",
"b. c #F7FAFC",
"n. c #F9FBFD",
"m. c #FAFBFD",
"M. c #FBFCFD",
"N. c #FDFDFE",
"B. c #FEFEFE",
"V. c #FEFEFF",
"C. c #FEFFFF",
"Z. c #FFFFFF",
"A. c None",
/* pixels */
"A.A.A.A.A.A.A.A.A.9.u.8.[ A.A.A.",
"A.A.A.A.A.o.,.q.h.x.V.l.m.s.6.A.",
"A.A.A.A.v.V.0.O.>.M.F V.l.V.h.A.",
"A.A.A.4.=.4 } 3.#.i.m.V.P f.,.A.",
"A.A.A.y.2 ^ /  .| ' 1.2.g.r.A.A.",
"A.A.: a.5 ~ / ~ ~ Z G I K A.A.A.",
"A.A.% 7.6 1 S N M k < W $ # A.A.",
"A.A.+ U 3 - v ) N v h ; o = A.A.",
"A.. @ e - d b k.t.B i d @ & A.A.",
"A.A.8 r H Y T 5.%.l u g 9 * A.A.",
"A.A.w 0 L ;.g.+.R x s a 0 , A.A.",
"A.A.> z V e.V.V.v...C j t J A.A.",
"A.A.A.f D ( w.V.M.b.i.+.<.A.A.A.",
"A.A.A.A.c $.&.] X.-.*.{ A.A.A.A.",
"A.A.A.A.A.X m ` E 7   A.A.A.A.A.",
"A.A.A.A.A.A.A.A.A.A.A.A.A.A.A.A."
};
