<?xml version="1.0" encoding="UTF-8" standalone="no"?>
<!-- Generator: Adobe Illustrator 16.0.0, SVG Export Plug-In . SVG Version: 6.00 Build 0)  -->

<svg
   xmlns:dc="http://purl.org/dc/elements/1.1/"
   xmlns:cc="http://creativecommons.org/ns#"
   xmlns:rdf="http://www.w3.org/1999/02/22-rdf-syntax-ns#"
   xmlns:svg="http://www.w3.org/2000/svg"
   xmlns="http://www.w3.org/2000/svg"
   xmlns:sodipodi="http://sodipodi.sourceforge.net/DTD/sodipodi-0.dtd"
   xmlns:inkscape="http://www.inkscape.org/namespaces/inkscape"
   version="1.1"
   id="Layer_1"
   x="0px"
   y="0px"
   width="32"
   height="32.000107"
   viewBox="0 0 31.999998 32.000109"
   enable-background="new 0 0 283.46 283.46"
   xml:space="preserve"
   inkscape:version="0.48.5 r10040"
   sodipodi:docname="webclogo.svg"><metadata
     id="metadata63"><rdf:RDF><cc:Work
         rdf:about=""><dc:format>image/svg+xml</dc:format><dc:type
           rdf:resource="http://purl.org/dc/dcmitype/StillImage" /></cc:Work></rdf:RDF></metadata><defs
     id="defs61" /><sodipodi:namedview
     pagecolor="#ffffff"
     bordercolor="#666666"
     borderopacity="1"
     objecttolerance="10"
     gridtolerance="10"
     guidetolerance="10"
     inkscape:pageopacity="0"
     inkscape:pageshadow="2"
     inkscape:window-width="1364"
     inkscape:window-height="748"
     id="namedview59"
     showgrid="false"
     fit-margin-top="1"
     fit-margin-left="1"
     fit-margin-right="1"
     fit-margin-bottom="1"
     inkscape:zoom="8.4511667"
     inkscape:cx="-5.973329"
     inkscape:cy="15.169456"
     inkscape:window-x="0"
     inkscape:window-y="18"
     inkscape:window-maximized="0"
     inkscape:current-layer="Layer_1"
     showborder="true" /><g
     id="g3"
     transform="matrix(0.10589557,0,0,0.10589557,0.99999797,1.0656553)"><g
       id="g5"><path
         d="m 166.766,141.027 c 0,-13.873 -11.249,-25.116 -25.123,-25.116 -13.869,0 -25.117,11.243 -25.117,25.116 0,13.873 11.249,25.121 25.117,25.121 13.874,0 25.123,-11.248 25.123,-25.121 z"
         id="path7"
         inkscape:connector-curvature="0"
         style="fill:#ffffff" /><path
         d="m 141.643,169.537 c -15.716,0 -28.508,-12.789 -28.508,-28.51 0,-15.722 12.792,-28.505 28.508,-28.505 15.727,0 28.514,12.783 28.514,28.505 -0.001,15.721 -12.788,28.51 -28.514,28.51 z m 0,-50.235 c -11.977,0 -21.727,9.746 -21.727,21.725 0,11.978 9.75,21.729 21.727,21.729 11.986,0 21.735,-9.751 21.735,-21.729 0,-11.979 -9.749,-21.725 -21.735,-21.725 z"
         id="path9"
         inkscape:connector-curvature="0"
         style="fill:#010101" /></g><g
       id="g11"><path
         d="m 124.348,2.771 c -2.798,0 -5.497,2.25 -6,5.002 l -7.446,40.776 c -0.505,2.751 -0.136,7.156 0.814,9.784 l 18.783,51.894 c 0.951,2.625 4.019,4.778 6.814,4.778 h 8.667 c 2.798,0 5.863,-2.153 6.812,-4.778 l 18.784,-51.894 c 0.951,-2.628 1.319,-7.032 0.814,-9.784 L 164.946,7.773 c -0.504,-2.751 -3.201,-5.002 -6,-5.002 h -34.598 z"
         id="path13"
         inkscape:connector-curvature="0"
         style="fill:#ffffff" /><path
         d="m 145.981,118.395 h -8.667 c -4.254,0 -8.555,-3.017 -10.006,-7.015 L 108.53,59.487 c -1.166,-3.218 -1.581,-8.18 -0.965,-11.548 l 7.447,-40.775 c 0.804,-4.368 4.901,-7.784 9.336,-7.784 h 34.601 c 4.438,0 8.535,3.417 9.336,7.784 l 7.446,40.775 c 0.616,3.369 0.197,8.33 -0.964,11.548 l -18.783,51.893 c -1.448,3.998 -5.748,7.015 -10.003,7.015 z M 124.348,6.16 c -1.162,0 -2.457,1.08 -2.665,2.222 l -7.445,40.777 c -0.396,2.148 -0.078,5.968 0.667,8.021 l 18.781,51.891 c 0.464,1.284 2.26,2.543 3.627,2.543 h 8.667 c 1.365,0 3.16,-1.259 3.627,-2.543 L 168.391,57.18 c 0.742,-2.054 1.061,-5.873 0.668,-8.021 L 161.612,8.382 C 161.403,7.24 160.112,6.16 158.947,6.16 h -34.599 z"
         id="path15"
         inkscape:connector-curvature="0"
         style="fill:#010101" /></g><g
       id="g17"><path
         d="m 124.348,279.288 c -2.798,0 -5.497,-2.25 -6,-5.003 l -7.446,-40.773 c -0.505,-2.754 -0.136,-7.156 0.814,-9.785 l 18.783,-51.894 c 0.951,-2.632 4.019,-4.782 6.814,-4.782 h 8.667 c 2.798,0 5.863,2.15 6.812,4.782 l 18.784,51.894 c 0.951,2.629 1.319,7.031 0.814,9.785 l -7.444,40.773 c -0.504,2.753 -3.201,5.003 -6,5.003 h -34.598 z"
         id="path19"
         inkscape:connector-curvature="0"
         style="fill:#ffffff" /><path
         d="m 158.948,282.679 h -34.601 c -4.435,0 -8.532,-3.418 -9.336,-7.783 l -7.447,-40.775 c -0.616,-3.363 -0.201,-8.331 0.965,-11.548 l 18.778,-51.894 c 1.451,-3.998 5.752,-7.019 10.006,-7.019 h 8.667 c 4.255,0 8.555,3.021 10.002,7.019 l 18.783,51.894 c 1.161,3.217 1.576,8.185 0.964,11.548 l -7.446,40.775 c -0.8,4.365 -4.897,7.783 -9.335,7.783 z M 137.314,170.441 c -1.367,0 -3.164,1.26 -3.627,2.543 l -18.781,51.893 c -0.745,2.055 -1.064,5.88 -0.667,8.022 l 7.445,40.777 c 0.208,1.143 1.503,2.224 2.665,2.224 h 34.601 c 1.165,0 2.456,-1.081 2.665,-2.224 l 7.447,-40.777 c 0.393,-2.143 0.074,-5.968 -0.668,-8.022 L 149.61,172.984 c -0.467,-1.283 -2.262,-2.543 -3.627,-2.543 h -8.669 z"
         id="path21"
         inkscape:connector-curvature="0"
         style="fill:#010101" /></g><g
       id="g23"><path
         d="m 3.391,158.331 c 0,2.796 2.25,5.495 5.001,5.997 l 40.775,7.447 c 2.751,0.502 7.154,0.136 9.783,-0.817 l 51.894,-18.782 c 2.627,-0.949 4.781,-4.02 4.781,-6.815 v -8.664 c 0,-2.799 -2.154,-5.864 -4.781,-6.817 L 58.95,111.1 c -2.629,-0.954 -7.032,-1.322 -9.783,-0.818 l -40.775,7.444 c -2.75,0.506 -5.001,3.202 -5.001,6 v 34.605 z"
         id="path25"
         inkscape:connector-curvature="0"
         style="fill:#ffffff" /><path
         d="m 52.033,175.391 0,0 c -1.289,0 -2.458,-0.094 -3.476,-0.279 L 7.782,167.668 C 3.414,166.866 0,162.768 0,158.331 v -34.606 c 0,-4.438 3.414,-8.537 7.78,-9.333 l 40.777,-7.444 c 1.019,-0.187 2.189,-0.281 3.482,-0.281 2.9,0 5.912,0.465 8.064,1.243 l 51.893,18.781 c 4.001,1.45 7.019,5.752 7.019,10.006 v 8.664 c 0,4.256 -3.018,8.558 -7.019,10.002 l -51.893,18.782 c -2.152,0.782 -5.169,1.246 -8.07,1.246 z m 0.007,-61.945 c -0.873,0 -1.654,0.061 -2.263,0.172 l -40.775,7.444 c -1.144,0.208 -2.22,1.503 -2.22,2.663 v 34.606 c 0,1.162 1.076,2.455 2.22,2.667 l 40.775,7.442 c 2.047,0.375 6.045,0.043 8.021,-0.672 l 51.89,-18.78 c 1.286,-0.464 2.548,-2.261 2.548,-3.628 v -8.664 c 0,-1.367 -1.262,-3.163 -2.548,-3.628 l -51.89,-18.781 c -1.387,-0.504 -3.702,-0.841 -5.758,-0.841 z"
         id="path27"
         inkscape:connector-curvature="0"
         style="fill:#010101" /></g><g
       id="g29"><path
         d="m 279.908,158.331 c 0,2.796 -2.252,5.495 -5.004,5.997 l -40.775,7.447 c -2.752,0.502 -7.155,0.136 -9.787,-0.817 l -51.889,-18.782 c -2.632,-0.949 -4.784,-4.02 -4.784,-6.815 v -8.664 c 0,-2.799 2.152,-5.864 4.784,-6.817 l 51.889,-18.78 c 2.632,-0.954 7.035,-1.322 9.787,-0.818 l 40.775,7.444 c 2.752,0.506 5.004,3.202 5.004,6 v 34.605 z"
         id="path31"
         inkscape:connector-curvature="0"
         style="fill:#ffffff" /><path
         d="m 231.264,175.391 c -2.903,0 -5.921,-0.464 -8.073,-1.246 l -51.894,-18.782 c -3.996,-1.444 -7.018,-5.746 -7.018,-10.002 v -8.664 c 0,-4.253 3.021,-8.556 7.018,-10.006 l 51.894,-18.781 c 2.152,-0.778 5.169,-1.243 8.065,-1.243 1.29,0 2.464,0.095 3.481,0.281 l 40.778,7.444 c 4.361,0.797 7.783,4.896 7.783,9.333 v 34.606 c 0,4.437 -3.422,8.535 -7.783,9.336 l -40.778,7.444 c -1.017,0.186 -2.186,0.28 -3.473,0.28 z m -0.008,-61.945 c -2.058,0 -4.369,0.337 -5.757,0.841 l -51.895,18.781 c -1.286,0.465 -2.544,2.261 -2.544,3.628 v 8.664 c 0,1.367 1.258,3.164 2.544,3.628 l 51.895,18.78 c 1.974,0.715 5.969,1.047 8.021,0.672 l 40.777,-7.442 c 1.141,-0.212 2.221,-1.505 2.221,-2.667 v -34.606 c 0,-1.159 -1.08,-2.454 -2.225,-2.663 l -40.773,-7.444 c -0.61,-0.111 -1.396,-0.172 -2.264,-0.172 z"
         id="path33"
         inkscape:connector-curvature="0"
         style="fill:#010101" /></g><g
       id="g35"><path
         d="m 31.651,55.497 c -1.976,1.979 -2.294,5.479 -0.704,7.78 l 23.566,34.099 c 1.59,2.302 4.963,5.155 7.496,6.34 l 49.976,23.412 c 2.531,1.19 6.22,0.54 8.199,-1.436 l 6.125,-6.127 c 1.979,-1.981 2.625,-5.667 1.437,-8.201 L 104.334,61.388 c -1.182,-2.533 -4.038,-5.907 -6.338,-7.496 L 63.897,30.325 c -2.302,-1.588 -5.8,-1.273 -7.777,0.706 L 31.651,55.497 z"
         id="path37"
         inkscape:connector-curvature="0"
         style="fill:#ffffff" /><path
         d="m 114.851,131.114 0,0 c -1.542,0 -3.03,-0.318 -4.308,-0.917 L 60.57,106.788 C 57.472,105.34 53.668,102.12 51.724,99.307 L 28.158,65.205 c -2.521,-3.645 -2.042,-8.962 1.091,-12.1 L 53.722,28.632 c 1.722,-1.721 4.19,-2.71 6.771,-2.71 1.959,0 3.806,0.56 5.33,1.614 l 34.099,23.568 c 2.814,1.946 6.033,5.747 7.481,8.846 l 23.416,49.973 c 1.805,3.854 0.898,9.028 -2.112,12.038 l -6.127,6.127 c -1.893,1.898 -4.783,3.026 -7.729,3.026 z M 60.493,32.703 c -0.773,0 -1.529,0.277 -1.975,0.724 l -24.47,24.467 c -0.821,0.822 -0.973,2.502 -0.313,3.458 l 23.566,34.1 c 1.24,1.793 4.167,4.272 6.143,5.196 l 49.978,23.413 c 0.377,0.18 0.883,0.274 1.428,0.274 l 0,0 c 1.134,0 2.312,-0.418 2.936,-1.041 l 6.127,-6.128 c 0.965,-0.965 1.344,-3.127 0.768,-4.365 L 101.262,62.828 c -0.923,-1.977 -3.4,-4.908 -5.194,-6.144 L 61.97,33.115 c -0.383,-0.267 -0.907,-0.412 -1.477,-0.412 z"
         id="path39"
         inkscape:connector-curvature="0"
         style="fill:#010101" /></g><g
       id="g41"><path
         d="m 227.178,251.026 c -1.978,1.975 -5.481,2.294 -7.78,0.699 l -34.095,-23.562 c -2.304,-1.589 -5.156,-4.963 -6.342,-7.496 L 155.545,170.69 c -1.185,-2.531 -0.534,-6.221 1.438,-8.198 l 6.132,-6.127 c 1.974,-1.978 5.667,-2.627 8.2,-1.438 l 49.975,23.412 c 2.531,1.186 5.904,4.04 7.493,6.338 l 23.569,34.101 c 1.587,2.3 1.272,5.8 -0.707,7.781 l -24.467,24.467 z"
         id="path43"
         inkscape:connector-curvature="0"
         style="fill:#ffffff" /><path
         d="m 222.807,256.131 c -1.963,0 -3.808,-0.554 -5.334,-1.612 l -34.099,-23.562 c -2.815,-1.95 -6.029,-5.753 -7.479,-8.853 l -23.419,-49.973 c -1.805,-3.854 -0.897,-9.029 2.112,-12.039 l 6.128,-6.127 c 1.893,-1.894 4.784,-3.022 7.73,-3.022 1.54,0 3.029,0.315 4.307,0.915 l 49.971,23.41 c 3.093,1.452 6.898,4.665 8.848,7.483 l 23.566,34.101 c 2.521,3.646 2.041,8.965 -1.095,12.103 l -24.472,24.469 c -1.72,1.719 -4.183,2.707 -6.764,2.707 z m -54.36,-98.408 c -1.137,0 -2.314,0.421 -2.938,1.038 l -6.127,6.128 c -0.969,0.969 -1.347,3.127 -0.769,4.367 l 23.416,49.972 c 0.927,1.978 3.405,4.905 5.199,6.148 l 34.094,23.562 c 0.906,0.627 2.68,0.471 3.452,-0.308 l 24.473,-24.471 c 0.819,-0.818 0.975,-2.496 0.31,-3.453 l -23.562,-34.101 c -1.243,-1.796 -4.175,-4.271 -6.146,-5.194 L 169.876,158 c -0.38,-0.18 -0.886,-0.277 -1.429,-0.277 z"
         id="path45"
         inkscape:connector-curvature="0"
         style="fill:#010101" /></g><g
       id="g47"><path
         d="m 56.117,251.024 c 1.979,1.977 5.478,2.296 7.78,0.701 l 34.099,-23.562 c 2.3,-1.589 5.15,-4.963 6.338,-7.496 l 23.412,-49.977 c 1.188,-2.531 0.542,-6.221 -1.437,-8.198 l -6.125,-6.127 c -1.979,-1.978 -5.668,-2.627 -8.199,-1.438 l -49.976,23.412 c -2.533,1.186 -5.906,4.04 -7.496,6.338 l -23.566,34.101 c -1.59,2.3 -1.271,5.8 0.704,7.781 l 24.466,24.465 z"
         id="path49"
         inkscape:connector-curvature="0"
         style="fill:#ffffff" /><path
         d="m 60.491,256.131 0,0 c -2.583,0 -5.051,-0.988 -6.771,-2.711 L 29.256,228.955 c -3.139,-3.142 -3.618,-8.456 -1.097,-12.103 l 23.566,-34.101 c 1.943,-2.818 5.748,-6.031 8.848,-7.483 l 49.973,-23.41 c 1.275,-0.6 2.764,-0.915 4.305,-0.915 2.946,0 5.836,1.129 7.73,3.022 l 6.127,6.127 c 3.01,3.01 3.917,8.185 2.107,12.039 l -23.411,49.973 c -1.456,3.1 -4.667,6.902 -7.481,8.853 l -34.099,23.562 c -1.53,1.058 -3.376,1.612 -5.333,1.612 z m 54.36,-98.408 c -0.545,0 -1.051,0.098 -1.428,0.273 l -49.978,23.416 c -1.976,0.923 -4.903,3.398 -6.143,5.194 l -23.566,34.098 c -0.66,0.96 -0.508,2.638 0.313,3.461 l 24.465,24.459 c 0.45,0.452 1.206,0.726 1.977,0.726 l 0,0 c 0.57,0 1.092,-0.144 1.475,-0.411 l 34.103,-23.562 c 1.791,-1.243 4.271,-4.171 5.196,-6.148 l 23.417,-49.972 c 0.576,-1.24 0.197,-3.398 -0.768,-4.367 l -6.127,-6.128 c -0.624,-0.618 -1.803,-1.039 -2.936,-1.039 z"
         id="path51"
         inkscape:connector-curvature="0"
         style="fill:#010101" /></g><g
       id="g53"><path
         d="m 268.594,38.55 c 1.979,1.976 2.296,5.478 0.708,7.776 l -23.569,34.1 c -1.589,2.301 -4.961,5.156 -7.492,6.341 l -49.975,23.41 c -2.534,1.191 -6.228,0.542 -8.201,-1.435 l -6.131,-6.129 c -1.974,-1.978 -2.622,-5.667 -1.439,-8.201 l 23.417,-49.976 c 1.187,-2.533 4.038,-5.906 6.343,-7.494 l 34.092,-23.568 c 2.3,-1.588 5.805,-1.27 7.782,0.706 l 24.465,24.47 z"
         id="path55"
         inkscape:connector-curvature="0"
         style="fill:#ffffff" /><path
         d="m 185.396,114.164 c -2.946,0 -5.836,-1.132 -7.729,-3.026 l -6.13,-6.128 c -3.007,-3.012 -3.914,-8.186 -2.11,-12.037 L 192.84,43 c 1.449,-3.1 4.668,-6.901 7.484,-8.846 l 34.099,-23.568 c 1.526,-1.056 3.37,-1.615 5.329,-1.615 2.58,0 5.05,0.989 6.77,2.711 l 24.471,24.472 c 3.137,3.135 3.618,8.45 1.096,12.103 l -23.565,34.097 c -1.949,2.815 -5.754,6.036 -8.849,7.486 l -49.973,23.41 c -1.275,0.596 -2.764,0.914 -4.306,0.914 z m 54.356,-98.411 c -0.566,0 -1.095,0.146 -1.48,0.412 l -34.093,23.568 c -1.799,1.237 -4.273,4.169 -5.2,6.14 l -23.411,49.978 c -0.581,1.236 -0.202,3.399 0.766,4.37 l 6.128,6.122 c 0.922,0.919 3.197,1.313 4.365,0.767 l 49.972,-23.413 c 1.974,-0.924 4.906,-3.403 6.146,-5.196 l 23.564,-34.1 c 0.666,-0.956 0.51,-2.633 -0.31,-3.453 L 241.733,16.476 c -0.448,-0.447 -1.209,-0.723 -1.981,-0.723 z"
         id="path57"
         inkscape:connector-curvature="0"
         style="fill:#010101" /></g></g></svg>