/* XPM */
static char *display_im6_q16[] = {
/* columns rows colors chars-per-pixel */
"32 32 176 2 ",
"   c #29D723563590",
".  c #5B7C1E7820C2",
"X  c #7BFA1D74258F",
"o  c #7720237C3591",
"O  c #76FB4CF43B65",
"+  c #1E6D22FE51FD",
"@  c #249C25654AE6",
"#  c #21FC24194120",
"$  c #2DA132B74E44",
"%  c #39D73AA645A5",
"&  c #2256293B5F53",
"*  c #25C227595442",
"=  c #248C2A5F648F",
"-  c #27D82E6467C5",
";  c #304E2CF1648B",
":  c #2FF1373E66DB",
">  c #39613B786A44",
",  c #24DA2E2F7029",
"<  c #285233F67BC1",
"1  c #25E7336A79CE",
"2  c #31F83DD17920",
"3  c #30243B90748A",
"4  c #40E93E955631",
"5  c #3F9042355E1D",
"6  c #4F34480E4EAA",
"7  c #5999419D43CA",
"8  c #4C8C4BDE5913",
"9  c #518747E351EF",
"0  c #651B530A44D0",
"q  c #635E5E044D45",
"w  c #7EA153D9416F",
"e  c #6F58650E4BF9",
"r  c #699068AD524F",
"t  c #6CBF70005CF7",
"y  c #785276295AEF",
"u  c #440146AB66F1",
"i  c #58015A2D6961",
"p  c #4B054F9B7584",
"a  c #43584C617939",
"s  c #4C4952A9796B",
"d  c #5A2B5F147937",
"f  c #643F5CE96006",
"g  c #5B8263287E36",
"h  c #5B3A68497775",
"j  c #6C666B936DB1",
"k  c #678468BB67B4",
"l  c #75D36C1E6BD0",
"z  c #6CAC6C337309",
"x  c #662669B871D8",
"c  c #78C978547781",
"v  c #713E71007A87",
"b  c #7BCC7B1C7BB6",
"n  c #76977609764C",
"m  c #85F145AB345E",
"M  c #81AD51473B0C",
"N  c #BCE561D53CA8",
"B  c #A21A5B6D44F0",
"V  c #9BAC600740F6",
"C  c #85A672974A5A",
"Z  c #8BBF6529543B",
"A  c #8EC47E8C59C3",
"S  c #B7F6675E4533",
"D  c #AD1675945D33",
"F  c #B33B714A55EE",
"G  c #892D6E2961DD",
"H  c #884075486C61",
"J  c #943E76516E20",
"K  c #A06B60E362B3",
"L  c #A53B7C226C50",
"P  c #B3BB76FC7924",
"I  c #C3DB6EDD4989",
"U  c #C73171D44CE3",
"Y  c #C5A07840589D",
"T  c #FFFF6D8D6D8C",
"R  c #FFFF73407340",
"E  c #FFFF7E827E82",
"W  c #8E6380A25BD8",
"Q  c #907D81195AC6",
"!  c #A5568DE64D02",
"~  c #A2708D345052",
"^  c #88DF81087DB7",
"/  c #9EB684A078A8",
"(  c #2ACE39E183C2",
")  c #29B239B78B17",
"_  c #2874352D81B8",
"`  c #302B3EDD8666",
"'  c #2A163BFC92A2",
"]  c #32FD40AE8358",
"[  c #3D3E49A6829E",
"{  c #38CF464C8B6D",
"}  c #42D14E6D8725",
"|  c #44FE50978346",
" . c #47F850BC82B3",
".. c #5BC161B581CF",
"X. c #641169F6806C",
"o. c #635E697B8AB0",
"O. c #6E93728D87EE",
"+. c #7D037CFD877D",
"@. c #751C7A0795E7",
"#. c #7FA683F69C57",
"$. c #88FA858085D3",
"%. c #874688C7938A",
"&. c #8F2C91BC99BE",
"*. c #95D0953B9640",
"=. c #9A5499399B35",
"-. c #AC5B90978449",
";. c #BDEE99F88A54",
":. c #A3239BFE9C12",
">. c #BACEBA18963A",
",. c #B6E9B64491AF",
"<. c #8FBF92A5A187",
"1. c #95689822A3DF",
"2. c #A45FA2EDA298",
"3. c #A8E5A76CA7A9",
"4. c #AEC7AD16AC59",
"5. c #A4BAA6D4B31F",
"6. c #A824AA69B78F",
"7. c #B5D2B561B54E",
"8. c #BB22BA41BAFF",
"9. c #B84FB5AEB0ED",
"0. c #FFFE840483DC",
"q. c #FFFF8C398C2A",
"w. c #FFFF932A932A",
"e. c #FFFF9B799B79",
"r. c #C8ACB82A9F14",
"t. c #C18EB453AE4D",
"y. c #D233B928ADAB",
"u. c #C08DBF64BFB3",
"i. c #CB71B898B52F",
"p. c #FFFFA5B7A5B7",
"a. c #FFFEACE0ACC9",
"s. c #C37CC2F7A681",
"d. c #C60CC58DAA6F",
"f. c #CC3BCBCEB53A",
"g. c #D14ED0EEBD95",
"h. c #DEF0D594B779",
"j. c #BB62BD9FC8F2",
"k. c #C3F8C354C35D",
"l. c #C87AC797C719",
"z. c #C7ABC8A4CDE9",
"x. c #D5ABD555C482",
"c. c #DBF5DBAFCE6A",
"v. c #C847C9B0D0F2",
"b. c #CD70CE24D215",
"n. c #D454D452D5DC",
"m. c #D88FD803D7C0",
"M. c #DB14DB42DC95",
"N. c #D4C7D579D93C",
"B. c #FFFEC340C316",
"V. c #FFFECE4FCE4F",
"C. c #FF94CBBCC246",
"Z. c #E580DD23D944",
"A. c #FFFFD83CD83A",
"S. c #FF44DCE8DCC7",
"D. c #E743E13CCDDD",
"F. c #E53FE468DCC0",
"G. c #EE8BE9EFDBBB",
"H. c #FF99E729D3A4",
"J. c #FF70F5E0DA94",
"K. c #FF70F89DDD75",
"L. c #E5BBE4ADE499",
"P. c #EAF7E9EFE42E",
"I. c #E6F1E73BE922",
"U. c #ED14ECF5ED50",
"Y. c #FFFEE338E315",
"T. c #FFFFEDBEEDBE",
"R. c #FF93FA69E5DD",
"E. c #F338F281EF4F",
"W. c #FF32FB7FECDD",
"Q. c #FA8BF4D9E3B6",
"!. c #F51FF4FBF443",
"~. c #FD87F459F3FE",
"^. c #FFADFD62F45A",
"/. c #F7FFF815F8A5",
"(. c #FF9FFF89FF6F",
"). c None",
/* pixels */
").(.(.(.(.(.(./.(.(.R.^.(.^././.(.(.(.(.(.(.(.(.(.(.(.(.(.(.(.(.",
").(.(.(.R.(.(.>.P.(.(.(.^.^.x.d.(.(.^.(.(.(.(.(.(.(.(.(.(.(.(.(.",
").(.(.(.^.(.(.E.(.Y.S.A.~.(.~.~.(.(.R.(.(.(.(.(.(.(.(.(.(.(.(.(.",
").(.(.!.g.(.(.~./.w.R E R w.q.a.S.T./.(.(.(.(.(.(.(.(.(.(.(.(.(.",
").(.(.!.g./.S.E a.B.q.p.e.0.R q.e.0.V.(.^.(.(.(.(.(.(.(.I.7.8.(.",
").J.(.(.(.V.0.0.C.R.(././.Y.H.T.B.q.A.(.W.(.(.(.(.(.L.1.y l !.(.",
").(.(.(.C.T 0.a.E.>./.x.f.(.(.(.(.J./.!.x.(.(.(.!.6.g y q l.(.(.",
").(.(.T.w.0.H././.F.!.E.!.(.^.c.(.^.(.!.f.(.(.I.@.! x 8 c /.(.(.",
").,.E.a.0.Y.^.(.d.P.Q.D.P.t.E.s./.(.(.(.(.(.N.v | ~ f > b.(.(.(.",
").F.S.e.p.(.R.^.F./.R.h.!.P.(.(.(.K.(.(.(.M.z x h x 8 +./.(.(.(.",
").(.~.a.V.(.(.(.(.(.(.G.G.(.(.(.(.(.(.(.U.X.! {  .k e m.(.(.(.(.",
").(.(.(.(.(.(.(.(.(.(./.h./.(.(.(.(.(./.&.[ A A W C t /.(.(.(.(.",
").(.(.(.(.c.F.(.(.(.(.(.G.t.y.P.(.(./.%.r t t t i 4 v /.(.(.(.(.",
").(.(.(.(.F.P.(.(.(.(.(.D.V S J 5.(./.z O I M O 0 0 $.(.(.(.(.(.",
").(.(.(.(.(.(.(.(.(.(.(./.-.N B p !.(.i.H I l D Y $.k /.(.(.(.(.",
").(.(.(.(.(.(.(.(.(.(.(.(./.l m > j.(.t.t.;./ U S Z -.(.(.(.(.(.",
").(.(.(.(.(.(.(.(.(.(.(.(./.p @ < | b.7.7.k.4.F L G F.(.(.(.(.(.",
").(.(.(.(.(.(.(.(.(.(.(.(./.p + < ' [ &./.U.I.P.2.4.(.(.(.(.(.(.",
").(.(.(.(.(.(.(.(.(.(.(.(./.o.& , ) ' ../.(.(.!.3.:.(.(.(.(.(.(.",
").(.(.(.(.(.(.(.(.(.(.(.(.(.z.O.u - _  .!.(.(./.8.c U.(.(.(.(.(.",
").(.(.(.(.(.(.(.(.(.(.(.(.(.(.(.U.%.; 2 m.(.(.(.n.j ..z.!.(.(.(.",
").(.(.(.(.(.(.(.(.(.(.(.(.(.(.(.(./.%.( 1.(.(.(.U.=.3 ` ..!.(.(.",
").(.(.(.(.(.(.(.(.(.(.(.(.(.(.(.(.(.b.( s !.(.(./.k.i 1 : I.(.(.",
").(.(.(.(.(.(.(.(.(.(.(.(.(.(.(.(.(.L.2 ) 5.(.(.(.L.*.: u !.(.(.",
").(.(.(.(.(.(.(.(.(.(.(.(.(.(.(.(.(.E.a ' a n.(.(.!.8.i z /.(.(.",
").(.(.(.(.(.(.(.(.(.(.(.(.(.(.(.(.(./.d ' '  .z./.U.8.$.M Z.(.(.",
").(.(.(.(.(.(.(.(.(.(.(.(.(.(.(.(.(.(.<.' ' ' ` d v j 8 9 L.(.(.",
").(.(.(.(.(.(.(.(.(.(.(.(.(.(.(.(.(.(.N.` ' ' ' ' ) _ _ = i M.(.",
").(.(.(.(.(.(.(.(.(.(.(.(.(.(.(.(.(.(./.#.) ' ' ' ' ' ) , & +./.",
").(.(.(.(.(.(.(.(.(.(.(.(.(.(.(.(.(.(./.P o ; ) ' ' ) < = @ 9 k.",
").(.(.(.(.(.(.(.(.(.(.(.(.(.(.(.(.(.(.(.i.K 7 % $ * @ #   X . b ",
").(.(.(.(.(.(.(.(.(.(.(.(.(.(.(.(.(.(.(.(./.E.n.7.*.c n =.:.:.M."
};
