/* XPM */
static char *display_im6_q16[] = {
/* columns rows colors chars-per-pixel */
"32 32 174 2 ",
"   c #29D723563590",
".  c #5B7C1E7820C2",
"X  c #7BFA1D74258F",
"o  c #7720237C3591",
"O  c #765D4C603BAE",
"+  c #1E6D22FE51FD",
"@  c #249C25654AE6",
"#  c #21FC24194120",
"$  c #2DA132B74E44",
"%  c #39D73AA645A5",
"&  c #2256293B5F53",
"*  c #25C227595442",
"=  c #3CC63FBC5F3B",
"-  c #248C2A5F648F",
";  c #27D82E6467C5",
":  c #304E2CF1648B",
">  c #2FF1373E66DB",
",  c #39613B786A44",
"<  c #24DA2E2F7029",
"1  c #285233F67BC1",
"2  c #25E7336A79CE",
"3  c #31F83DD17920",
"4  c #30243B90748A",
"5  c #3FED3DE25683",
"6  c #4F34480E4EAA",
"7  c #59DA46D64460",
"8  c #5FDF5AB64E7C",
"9  c #4B704ADC5976",
"0  c #518747E351EF",
"q  c #64A857644BAB",
"w  c #7EA153D9416F",
"e  c #65B865305A0C",
"r  c #7C8B71905CB8",
"t  c #440146AB66F1",
"y  c #517E583D6F8C",
"u  c #583A591B6847",
"i  c #4B054F9B7584",
"p  c #43584C617939",
"a  c #4C4952A9796B",
"s  c #5A2B5F147937",
"d  c #64335CDD600C",
"f  c #558161467D43",
"g  c #5BF765587804",
"h  c #632763C6661D",
"j  c #6BD56B106E04",
"k  c #659E65FA6810",
"l  c #71D06D026B8A",
"z  c #78F26A8D6C57",
"x  c #6DB7750D6200",
"c  c #6CA96C30730B",
"v  c #6A0C663371E8",
"b  c #72EB72B379C3",
"n  c #7BCC7B1C7BB6",
"m  c #76977609764C",
"M  c #85F145AB345E",
"N  c #813850DE3B4F",
"B  c #BCE561D53CA8",
"V  c #A21A5B6D44F0",
"C  c #9BAC600740F6",
"Z  c #852E723B4A7C",
"A  c #8BBF6529543B",
"S  c #8DFA7F0D5B25",
"D  c #B7F6675E4533",
"F  c #AD1675945D33",
"G  c #B33B714A55EE",
"H  c #892D6E2961DD",
"J  c #884075486C61",
"K  c #943E76516E20",
"L  c #A06B60E362B3",
"P  c #A53B7C226C50",
"I  c #B3BB76FC7924",
"U  c #C3A96EB049A5",
"Y  c #C73171D44CE3",
"T  c #C595783858A1",
"R  c #FFFF6D536D52",
"E  c #FFFF726A726A",
"W  c #FFFF7E297E29",
"Q  c #901680BC5B00",
"!  c #A5548DE44D04",
"~  c #A1E48CB550A2",
"^  c #878B804D7E26",
"/  c #9EB684A078A8",
"(  c #2ACE39E183C2",
")  c #29B239B78B17",
"_  c #2874352D81B8",
"`  c #302B3EDD8666",
"'  c #2A163BFC92A2",
"]  c #32FD40AE8358",
"[  c #3C95490E82FF",
"{  c #389246168B8F",
"}  c #41CF4E418625",
"|  c #471D509A82E4",
" . c #5BC161B581CF",
".. c #6293689E8147",
"X. c #635E697B8AB0",
"o. c #6E93728D87EE",
"O. c #7CFE7CF9877E",
"+. c #751B7A0595E8",
"@. c #7FA683F69C57",
"#. c #88198501861B",
"$. c #8705888C93AF",
"%. c #8E5490F99A3A",
"&. c #95D0953B9640",
"*. c #9A5499399B35",
"=. c #AC5B90978449",
"-. c #BDEE99F88A54",
";. c #A3239BFE9C12",
":. c #BACEBA18963A",
">. c #B6E9B64491AF",
",. c #8FA592E7A1A7",
"<. c #9A609C4BA676",
"1. c #A45FA2EDA298",
"2. c #A8E5A76CA7A9",
"3. c #AEC7AD16AC59",
"4. c #A4BAA6D4B31F",
"5. c #A81CAA62B793",
"6. c #B5D2B561B54E",
"7. c #BB22BA41BAFF",
"8. c #B84FB5AEB0ED",
"9. c #FFFE831082D9",
"0. c #FFFF8B0A8AFF",
"q. c #FFFF93F793F7",
"w. c #FFFF9B519B51",
"e. c #C8ACB82A9F14",
"r. c #C18EB453AE4D",
"t. c #D233B928ADAB",
"y. c #C08DBF64BFB3",
"u. c #CB71B898B52F",
"i. c #FFFEA73FA73F",
"p. c #FFFEA9D8A9BB",
"a. c #C37CC2F7A681",
"s. c #C60CC58DAA6F",
"d. c #CC3BCBCEB539",
"f. c #D14ED0EEBD95",
"g. c #DEF0D594B779",
"h. c #BB62BD9FC8F2",
"j. c #C3F8C354C35D",
"k. c #C878C795C71A",
"l. c #C7ABC8A4CDE9",
"z. c #D5ABD555C482",
"x. c #DBF5DBAFCE6A",
"c. c #C847C9B0D0F2",
"v. c #CD70CE24D215",
"b. c #D516D4FED644",
"n. c #DB0ADB39DC9B",
"m. c #D4C7D579D93C",
"M. c #FFFEC3D5C3B3",
"N. c #FFFBCEE8CEE8",
"B. c #FF94C9C0C04A",
"V. c #E580DD23D944",
"C. c #FFFFD4C1D4C0",
"Z. c #FF43DC26DC05",
"A. c #E743E13CCDDD",
"S. c #E53FE465DCBD",
"D. c #EE8BE9EFDBBB",
"F. c #FF99E6AAD326",
"G. c #FF70F5FEDAB1",
"H. c #FF70F89DDD75",
"J. c #E5A7E49CE4A4",
"K. c #EAF7E9EFE42E",
"L. c #E6F0E73AE923",
"P. c #ED14ECF5ED50",
"I. c #FED0EE00EDC4",
"U. c #FFFDE5CDE565",
"Y. c #FF93FA69E5DD",
"T. c #F338F265EF32",
"R. c #FF32FB7EECDD",
"E. c #FA8BF4DDE3BA",
"W. c #F51FF4FBF443",
"Q. c #FE1AF5ECF5B3",
"!. c #FFADFD62F45B",
"~. c #F7FFF815F8A5",
"^. c #FF9FFF8BFF71",
"/. c None",
/* pixels */
"/.^.^.^.^.^.^.~.^.^.R.!.^.!.~.^.^.^.^.^.^.^.^.^.^.^.^.^.^.^.^.^.",
"/.^.^.^.Y.^.^.:.K.^.^.^.!.!.z.s.^.^.!.^.^.^.^.^.^.^.^.^.^.^.^.^.",
"/.^.^.^.!.^.^.T.~.Z.C.C.Q.^.Q.I.^.^.Y.^.^.^.^.^.^.^.^.^.^.^.^.^.",
"/.^.^.W.f.^.^.Q.Q.q.E W E q.0.i.Z.U.^.^.^.^.^.^.^.^.^.^.^.^.^.^.",
"/.^.^.W.f.Q.Z.W p.p.w.p.w.9.E 0.w.W M.^.!.^.^.^.^.^.^.~.L.8.7.^.",
"/.G.^.^.^.N.9.9.B.Y.^.^.^.Z.Z.I.M.0.C.^.R.^.^.^.^.^.J.,.r l W.^.",
"/.^.^.^.M.R 9.i.T.:.^.f.d.^.^.^.^.G.^.W.z.^.^.^.W.5. .x 8 k.^.^.",
"/.^.^.I.q.W F.^.^.S.T.P.W.^.~.x.^.^.^.P.f.^.^.J.+.~ v 9 m ~.^.^.",
"/.>.T.i.0.U.!.^.a.K.E.A.S.a.W.a.~.^.^.^.^.^.n.g } ~ d 5 b.^.^.^.",
"/.S.Z.q.i.^.Y.!.S.~.Y.g.W.K.^.^.^.H.^.^.^.n.c g f g = O.~.^.^.^.",
"/.^.I.M.N.^.^.^.^.^.^.D.D.^.^.^.^.^.^.^.P...! { a h q n.^.^.^.^.",
"/.^.^.^.^.^.^.^.^.^.^.~.g.^.^.^.^.^.^.~.%.[ Q Q Q Z l ~.^.^.^.^.",
"/.^.^.^.^.x.S.^.^.^.^.^.D.r.t.L.^.^.~.$.8 k h x y = b ^.^.^.^.^.",
"/.^.^.^.^.S.K.^.^.^.^.^.A.C D K 4.^.~.c w Y O O q 7 #.^.^.^.^.^.",
"/.^.^.^.^.^.^.^.^.^.^.^.!.=.B V i W.^.u.J D z F Y J h ~.^.^.^.^.",
"/.^.^.^.^.^.^.^.^.^.^.^.^.W.z M , h.^.r.r.-./ T D A =.^.^.^.^.^.",
"/.^.^.^.^.^.^.^.^.^.^.^.^.~.i @ 1 | v.3.7.j.3.G P H S.^.^.^.^.^.",
"/.^.^.^.^.^.^.^.^.^.^.^.^.~.i + 1 ' [ ,.~.P.K.J.1.3.^.^.^.^.^.^.",
"/.^.^.^.^.^.^.^.^.^.^.^.^.~.X.& < ) ' X.~.^.^.W.2.;.^.^.^.^.^.^.",
"/.^.^.^.^.^.^.^.^.^.^.^.^.^.l.o.t ; ( p W.^.^.~.7.m P.^.^.^.^.^.",
"/.^.^.^.^.^.^.^.^.^.^.^.^.^.^.^.P.$.: 3 n.^.^.^.b.j  .c.W.^.^.^.",
"/.^.^.^.^.^.^.^.^.^.^.^.^.^.^.^.^.~.$.( <.^.^.^.L.*.4 `  .W.^.^.",
"/.^.^.^.^.^.^.^.^.^.^.^.^.^.^.^.^.^.v.( a T.^.^.~.k.u 2 > L.^.^.",
"/.^.^.^.^.^.^.^.^.^.^.^.^.^.^.^.^.^.J.3 ( 4.~.^.^.J.&.> t W.^.^.",
"/.^.^.^.^.^.^.^.^.^.^.^.^.^.^.^.^.^.W.p ' [ m.^.^.W.7.h v ~.^.^.",
"/.^.^.^.^.^.^.^.^.^.^.^.^.^.^.^.^.^.~. .' ' | c.~.P.7.#.w V.^.^.",
"/.^.^.^.^.^.^.^.^.^.^.^.^.^.^.^.^.^.^.,.) ' ' ( s b j 9 0 K.^.^.",
"/.^.^.^.^.^.^.^.^.^.^.^.^.^.^.^.^.^.^.m.] ' ' ' ' ) _ _ & y n.^.",
"/.^.^.^.^.^.^.^.^.^.^.^.^.^.^.^.^.^.^.~.$.) ' ' ' ' ' ) < & O.Q.",
"/.^.^.^.^.^.^.^.^.^.^.^.^.^.^.^.^.^.^.^.I o : ) ' ' ' 2 - @ 0 j.",
"/.^.^.^.^.^.^.^.^.^.^.^.^.^.^.^.^.^.^.^.u.L 7 % $ * @     X . n ",
"/.^.^.^.^.^.^.^.^.^.^.^.^.^.^.^.^.^.^.^.^.~.P.b.6.%.n b *.;.;.n."
};
