/* XPM */
static char *epdfview[] = {
/* columns rows colors chars-per-pixel */
"24 24 227 2",
"   c black",
".  c gray1",
"X  c #070707",
"o  c #090909",
"O  c gray13",
"+  c #232323",
"@  c gray14",
"#  c #282828",
"$  c #2E2D2D",
"%  c #2F2F2E",
"&  c #2F2F2F",
"*  c #342525",
"=  c gray19",
"-  c #313131",
";  c #363333",
":  c #353534",
">  c #363635",
",  c gray21",
"<  c #373737",
"1  c #383636",
"2  c gray22",
"3  c #393939",
"4  c gray23",
"5  c #3C3C3C",
"6  c gray24",
"7  c #3F3D3D",
"8  c #3E3E3E",
"9  c #462122",
"0  c #453031",
"q  c #473333",
"w  c #413738",
"e  c gray25",
"r  c #414141",
"t  c gray26",
"y  c #434343",
"u  c #444443",
"i  c #464645",
"p  c gray28",
"a  c #4A4A49",
"s  c #4D4D4C",
"d  c #4E4E4E",
"f  c gray32",
"g  c #606060",
"h  c #646464",
"j  c #6D6D6D",
"k  c gray47",
"l  c #883F41",
"z  c #965B5C",
"x  c #A24B4D",
"c  c #9B6466",
"v  c #BF7579",
"b  c #DE6367",
"n  c #DD6F71",
"m  c #DD7073",
"M  c #D17B7D",
"N  c #EF676B",
"B  c #E07275",
"V  c #E27476",
"C  c #F27C7F",
"Z  c #F27E80",
"A  c #808080",
"S  c #838383",
"D  c #848483",
"F  c #988E8E",
"G  c #909090",
"H  c #939393",
"J  c gray59",
"K  c #989897",
"L  c #989898",
"P  c #9B9B9B",
"I  c #9C9C9B",
"U  c #9D9D9C",
"Y  c #A49594",
"T  c #A89999",
"R  c #A0A09F",
"E  c #A3A3A2",
"W  c #A5A3A3",
"Q  c #A5A5A5",
"!  c #A7A7A5",
"~  c #AFA6A5",
"^  c gray67",
"/  c #ADADAC",
"(  c #AFB0B0",
")  c #B2B2B2",
"_  c gray70",
"`  c #B4B4B4",
"'  c #B6B6B5",
"]  c gray72",
"[  c #BABAB9",
"{  c #BBBBBA",
"}  c #BCBCBA",
"|  c #BCBCBB",
" . c #BDBDBB",
".. c #DB8686",
"X. c #DF8789",
"o. c #DD8D8F",
"O. c #E6878B",
"+. c #ED9597",
"@. c #ED999B",
"#. c #EC999C",
"$. c #ED9FA2",
"%. c #C6A4A6",
"&. c #C8A0A2",
"*. c #E9A0A1",
"=. c #EFA4A6",
"-. c #EBACAD",
";. c #F7ADB0",
":. c #E0BCBB",
">. c #E9BBBD",
",. c #F0B1B2",
"<. c gray77",
"1. c #C5C5C4",
"2. c #C6C6C6",
"3. c #CCC2C2",
"4. c #C8C8C8",
"5. c #C9C9C8",
"6. c gray79",
"7. c #CBCBC9",
"8. c #CACACA",
"9. c #CCCCCB",
"0. c #D1D1D0",
"q. c #D2D2D0",
"w. c #D5D5D3",
"e. c gray83",
"r. c #D6D6D4",
"t. c #D9D9D7",
"y. c #DEDAD9",
"u. c #DDDDDB",
"i. c #DDDCDC",
"p. c #DDDDDD",
"a. c #DEDEDC",
"s. c #DFDFDD",
"d. c #DFDFDF",
"f. c #E0C4C5",
"g. c #E6C4C5",
"h. c #E4C7C6",
"j. c #EBC2C3",
"k. c #E9C4C3",
"l. c #EACDCD",
"z. c #F2C2C4",
"x. c #F9C5C7",
"c. c #F6C9CA",
"v. c #E6D5D5",
"b. c #EFD0D1",
"n. c #E8D6D6",
"m. c #F0D1D1",
"M. c #F5D4D5",
"N. c #FAD2D4",
"B. c #F3D7D8",
"V. c #FAD6D8",
"C. c #FADEDF",
"Z. c #E0E0DE",
"A. c #E1E1DF",
"S. c #E3E0DE",
"D. c #E2E2DF",
"F. c #EBE0DF",
"G. c #FBDFE0",
"H. c #E6E3E2",
"J. c #E4E4E3",
"K. c #E7E7E5",
"L. c #E7E7E6",
"P. c #EBE3E3",
"I. c #ECE6E5",
"U. c #EDE7E6",
"Y. c gray91",
"T. c #EAEAE8",
"R. c #EAEAE9",
"E. c #EAEAEA",
"W. c gray92",
"Q. c #ECECEA",
"!. c #EDECEA",
"~. c #EDECEB",
"^. c #EDEDEB",
"/. c #ECECEC",
"(. c #EDEDEC",
"). c gray93",
"_. c #EEEEEC",
"`. c #EFEEED",
"'. c #F2E3E3",
"]. c #F1E6E6",
"[. c #F5E4E4",
"{. c #F8E2E2",
"}. c #F8E6E6",
"|. c #F9E6E6",
" X c #F7EAE9",
".X c #F2EDED",
"XX c #F0EFEE",
"oX c #F8EAEB",
"OX c #FBEAEA",
"+X c #F0F0EF",
"@X c #F1F1F0",
"#X c #F2F1F0",
"$X c #F3F1F1",
"%X c #F2F2F0",
"&X c #F3F3F2",
"*X c #F3F3F3",
"=X c #F4F3F2",
"-X c #F4F4F2",
";X c #F4F4F4",
":X c #F5F5F4",
">X c gray96",
",X c #F6F6F6",
"<X c #F7F7F6",
"1X c gray97",
"2X c #F8F1F1",
"3X c #FCF1F1",
"4X c #FAF4F4",
"5X c #FDF7F7",
"6X c #F8F8F7",
"7X c #F8F8F8",
"8X c #F9F9F8",
"9X c #F9F9F9",
"0X c #FAF9F9",
"qX c gray98",
"wX c #FBFBFB",
"eX c #FDF8F8",
"rX c #FDFAFA",
"tX c #FCFCFB",
"yX c gray99",
"uX c #FDFDFD",
"iX c #FEFCFC",
"pX c #FEFDFD",
"aX c #FFFDFD",
"sX c #FEFEFE",
"dX c #FFFEFE",
"fX c gray100",
"gX c None",
/* pixels */
"<                               gXgXgXgXgXgXgXgX",
"  yXsXsXsXsXsXsXsXsXsXsXsXsXwXH   gXgXgXgXgXgXgX",
"  sXsXsXsXsXsXrXV.G.uXuXuXuX9XP /.  gXgXgXgXgXgX",
"  sXsXsXsXsXuXG.C ;.uXuXyXyX1XG ;Xd.  gXgXgXgXgX",
"  sXsXsXsXsXuXN.Z x.yXtXwXwX,Xk j h g   gXgXgXgX",
"  sXsXsXsXuXuXC.N v f 5 4 d | e.) L S   gXgXgXgX",
"  yX9X9X9X9X>X3.9 q ( _ ` ^ y y 2.>XY.  gXgXgXgX",
"  wX7X7X7X7X8.7 z f.,XuXuX*Xp.J 2 <.W.  gXgXgXgX",
"  qX<X<X<X<Xi F v.dXfXfXfXfXfX/.R e E.  gXgXgXgX",
"  8X:X:X:X] r i.pXaXiXsXsXsXsXuX>Xa Q   gXgXgXgX",
"  6X-X=X&Xp W ].5XeXOX3XyXyXyXtXqX0.4   gXgXgXgX",
"  ,X%X#X@X= T B.4X0X|.c.{.oX}. X2X`.@   gXgXgXgX",
"  >X+X+X+X$ c g.[.M.z.,.=.+.@.$.#.l.+   gXgXgXgX",
"  ;X).).~.w l &.j.m.'.$X.Xb.-.*.O.%.2   gXgXgXgX",
"  &XQ.F.>.x * ~ y.^._.(.^.!.I.k.V 0 I   gXgXgXgX",
"  XXn.B b M 1 A 1.J.T.T.T.T.T.H.Y ; Z.  gXgXgXgX",
"  U.X.m n h.! % D 7.A.K.K.K.K.E   u [   gXgXgXgX",
"  P.o...:.S.w.E : 3 / t.a. .y > s       gXgXgXgX",
"  R.D.D.A.D.D.A.q.U , O O , K { }   & o   gXgXgX",
"  L.Z.Z.Z.Z.Z.Z.Z.u.q.q.q.q.q.s.r.  r 4 X   gXgX",
"  9.6.5.5.5.5.5.5.4.4.4.4.4.4.4.4.'   8 #     gX",
"                                        6 < X   ",
"gXgXgXgXgXgXgXgXgXgXgXgXgXgXgXgXgXgXgXgX  t -   ",
"gXgXgXgXgXgXgXgXgXgXgXgXgXgXgXgXgXgXgXgXgX    . "
};
