/* XPM */
static char *iceweasel[] = {
/* columns rows colors chars-per-pixel */
"32 32 243 2",
"   c #1D1D1E",
".  c #1F2020",
"X  c #3C6137",
"o  c #575757",
"O  c #446D52",
"+  c #405F6F",
"@  c #435C73",
"#  c #455D7B",
"$  c #436065",
"%  c #446862",
"&  c #45646B",
"*  c #48696A",
"=  c #486374",
"-  c #526478",
";  c #777777",
":  c #7E7E7E",
">  c #2216A4",
",  c #2616B4",
"<  c #2719B7",
"1  c #2A1BB6",
"2  c #2B1CBC",
"3  c #2E21AC",
"4  c #352BA2",
"5  c #3627B8",
"6  c #3A2CBA",
"7  c #3C3CB3",
"8  c #3B32BD",
"9  c #3C38BA",
"0  c #4538AF",
"q  c #4134BD",
"w  c #403DBA",
"e  c #483BBC",
"r  c #3E5089",
"t  c #3C4395",
"y  c #3E4B95",
"u  c #404F8F",
"i  c #425781",
"p  c #435984",
"a  c #495B89",
"s  c #475095",
"d  c #4D5A97",
"f  c #484FA5",
"g  c #515BA5",
"h  c #5750A8",
"j  c #5159A9",
"k  c #4141B8",
"l  c #4F42BE",
"z  c #5144BE",
"x  c #574BBE",
"c  c #4852BD",
"v  c #5C51B8",
"b  c #4673AD",
"n  c #2E1EC1",
"m  c #2F20C3",
"M  c #3223C5",
"N  c #372CC2",
"B  c #3C2EC5",
"V  c #3626CB",
"C  c #3C2DCA",
"Z  c #3D32C1",
"A  c #3C3AC0",
"S  c #3F31D1",
"D  c #4234C2",
"F  c #4539C1",
"G  c #4A3EC4",
"H  c #4435CB",
"J  c #4638CE",
"K  c #4839CA",
"L  c #4D42C3",
"P  c #444AC4",
"I  c #4E41CC",
"U  c #5145C0",
"Y  c #564BC4",
"T  c #5B4FC4",
"R  c #5447C8",
"E  c #564ACB",
"W  c #594DCB",
"Q  c #5355C1",
"!  c #5D52C3",
"~  c #5D52CB",
"^  c #5344D3",
"/  c #5A4ED2",
"(  c #5447D8",
")  c #6157C7",
"_  c #6459C3",
"`  c #645BCC",
"'  c #685EC9",
"]  c #6357D1",
"[  c #6659D5",
"{  c #6359D9",
"}  c #695DD8",
"|  c #5A64C6",
" . c #596BC4",
".. c #6C62C4",
"X. c #6B62CC",
"o. c #776EC2",
"O. c #7065C9",
"+. c #756BCC",
"@. c #786ECC",
"#. c #7E74CE",
"$. c #707FC9",
"%. c #7F78CB",
"&. c #6D62D3",
"*. c #746AD7",
"=. c #7065DC",
"-. c #756BDB",
";. c #7C73D2",
":. c #787CD4",
">. c #7A73D8",
",. c #827ACE",
"<. c #837BD2",
"1. c #857CD9",
"2. c #857CE1",
"3. c #588598",
"4. c #5A82B3",
"5. c #7481A5",
"6. c #7682AD",
"7. c #7D8AA8",
"8. c #6A83B0",
"9. c #6F88B2",
"0. c #6983BF",
"q. c #678DBC",
"w. c #6B8DBD",
"e. c #7088B7",
"r. c #7B8BB1",
"t. c #7083BD",
"y. c #6D90BE",
"u. c #7C92B5",
"i. c #7192BE",
"p. c #6F85C7",
"a. c #6E80CA",
"s. c #7385C6",
"d. c #6F90C0",
"f. c #7394C0",
"g. c #7B90C3",
"h. c #7798C2",
"j. c #7D9AC1",
"k. c #7F99C8",
"l. c #838383",
"z. c #8394AF",
"x. c #8F9DB6",
"c. c #8B9CBB",
"v. c #AEAEAE",
"b. c #AEAFB2",
"n. c #BBBCBC",
"m. c #8685C1",
"M. c #848AC2",
"N. c #8F89C6",
"B. c #908BCA",
"V. c #8094C0",
"C. c #839AC3",
"Z. c #899FC1",
"A. c #899ECA",
"S. c #8C84D5",
"D. c #828BD1",
"F. c #8B85D9",
"G. c #918AD2",
"H. c #9089DD",
"J. c #9992D6",
"K. c #9C95DA",
"L. c #9F98D9",
"P. c #A39DDB",
"I. c #81A0C7",
"U. c #85A3C8",
"Y. c #8AA6CB",
"T. c #93ACCE",
"R. c #9CADC9",
"E. c #97B0D0",
"W. c #9CB4D2",
"Q. c #A1A8C6",
"!. c #A5B3CA",
"~. c #AAB9CE",
"^. c #A6A1DB",
"/. c #AAA4DD",
"(. c #ADA8DE",
"). c #A1B4D4",
"_. c #A5BAD4",
"`. c #AABDD1",
"'. c #A4B8DA",
"]. c #B6B3D5",
"[. c #B1BCD0",
"{. c #BBB7DE",
"}. c #8F87E3",
"|. c #9D96E7",
" X c #9F9AE6",
".X c #9C94E8",
"XX c #A39DE2",
"oX c #A39BE9",
"OX c #A9A4E3",
"+X c #A7A1E8",
"@X c #AEA7ED",
"#X c #B4AEE2",
"$X c #B7B2E2",
"%X c #BBB7E3",
"&X c #BEBAE4",
"*X c #BAB4EE",
"=X c #BEB9EB",
"-X c #B8B2F1",
";X c #C0BCE6",
":X c #C1BCE9",
">X c #C3BEF0",
",X c #A8C0DB",
"<X c #BDC6D1",
"1X c #B2C4DD",
"2X c #BDCDE2",
"3X c #C1CEDE",
"4X c #CCD4DD",
"5X c #C7C4E1",
"6X c #C9C6E7",
"7X c #C0CEE4",
"8X c #CDCAE7",
"9X c #C4C0EB",
"0X c #D0CEE8",
"qX c #C5D2E3",
"wX c #CBD4E5",
"eX c #CBD8E8",
"rX c #D3D0EE",
"tX c #D2DCEA",
"yX c #C9C5F3",
"uX c #CFCBF4",
"iX c #D2CEF5",
"pX c #D3D4F2",
"aX c #D9D6F3",
"sX c #DCDAF4",
"dX c #D6E2EF",
"fX c #DAE3EF",
"gX c #D6E3F1",
"hX c #DBE6F3",
"jX c #DEE8F3",
"kX c #E1E2E5",
"lX c #E9E7F7",
"zX c #E4EBF4",
"xX c #E9EEF5",
"cX c #E9E7FA",
"vX c #EFEDFA",
"bX c #F0EFF9",
"nX c #EDF0F5",
"mX c #ECF2F9",
"MX c #F5F5F5",
"NX c #F2F5FA",
"BX c #F6F9FB",
"VX c #FDFEFE",
"CX c None",
/* pixels */
"CXCXCXCXCXCXCXCXCXCXCXCXCXCXCXCXCXCXf.2XW.CXf.Y.4.CXCXCXCXCXCXCX",
"CXCXCXCXCXCXCXCXCXCXCXCXCXCXCXCXCXCXxXzXBXBXBXVXBX1Xi.CXCXCXCXCX",
"CXCXCXCXCXCXCXCXCXCXCXCXw.h.U.T.1XfXNXVXVXVXjXmXVXVXBXq.I.CXCXCX",
"CXCXCXCXCXCXCXCXCX_.zXVXVXVXVXVXVXVXVXVXVXVXVXVXVXNXNXBXmXNXCXCX",
"CXCXCXCXCXCXCXCXfXVXVXVXVXVXVXBXBXVXVXVXb.<XVXVXxXmXVXVXVXxXY.CX",
"CXCXCXCXCXCXCX2XVXVXVXzX~.c.9.8.e.C.xXVX  - VXVXVX4XVXVXVXNXCXCX",
"CXCXCXCXCXCXy.VXVXzX7.f B.%X6X8X5X].qXNXBXmXVXVX`.. v.VXVXW.CXCX",
"CXCXCXCXCXCX_.VX3Xt ..J./.#X%X;X&X$XR.zXBXVXVXVXBXn.MXVXE.CXCXCX",
"CXCXCXCXCXCXqXVX6.v ,.G.K.P./.(./.^.z.fXgXVXVXVXVXBXNX2XCXCXCXCX",
"CXCXCXCXCXCXtXVX5._ ,.J.<.J.P././.P.B.o.xX; : xXhXjXqXCXCXCXCXCX",
"CXCXCXCXCX+ tXVX5.v @.aX0XP.K.P.K.L.P.N.x.l.o kXgX0.CXCXCXCXCXCX",
"CXCXCXCXCXN wXVX7.xX+.9X;X@.,.,.,.,.@.X.h z.c.g > m + CXCXCXCXCX",
"CXCXCXCXr n 7XVXx.,.z ) ,.,.@.,.#.+.O._ x 0 o.e P.< 8 CXCXCXCXCX",
"CXCXCXCX8 2 ).BX~.4 e Y ' J.,.;.#.+.' ! z T BX+.5 6 M O CXCXCXCX",
"CXCXCXCXV < g.eXR.3 q z _ F.K.;.<.@.' ) ) ~ <.8 , , M y CXCXCXCX",
"CXCXCX& M < 7 c.s 5 q l ) @.#XP.S.,.<.<._ 6 e G < , 2 7 CXCXCXCX",
"CXCXCXi m < 2 F L 6 w Y ' ;.:XlXaX:XK.` G 8 e R 2 2 2 8 CXCXCXCX",
"CXCXCXs m 2 2 L G 6 G Y X.1.aXVXBX:X+.W G q F R 2 2 2 8 CXCXCXCX",
"CXCXCX# m 2 2 U d.q.p.x &.P.sXNXbXOX&.~ G D G I 2 n 2 9 CXCXCXCX",
"CXCXCX% V 2 m P b b f.T.k.F.F.OX=XH.` E G D E D m 2 M k CXCXCXCX",
"CXCXCXCXC n M A f.f.T.2XtX2Xs.>.<.XX} W G B ] M M M M p CXCXCXCX",
"CXCXCXCXk H M J Y.Y.,XeXxXBXVX7X$.H.1.] / G W V C n P 3.CXCXCXCX",
"CXCXCXCX& V K 2.=XC.eXxXBXVXVXVXVX{.g.=.[ } [ ^ V V _.CXCXCXCXCX",
"CXCXCXCXCXw C ( 2.pXA.NXVXVXVXVXVXVXBX2X:.NX=.( H  .eXCXCXCXCXCX",
"CXCXCXCXCXCXS / } iX Xj.xXVXVXVXVXVXVXVXxX'.a.| p.dXT.CXCXCXCXCX",
"CXCXCXCXCXCX= ( -.2.oX.XM.[.BXVXVXBXNXNXmXxXzXzXjX2XCXCXCXCXCXCX",
"CXCXCXCXCXCXCX* { }.oX@X-X#Xr.!.zXmXmXzXjXjXhXgX,XCXCXCXCXCXCXCX",
"CXCXCXCXCXCXCXCXO ` |.=X>XiXaX0XQ.u.Z.T.E.T.j.4.CXCXCXCXCXCXCXCX",
"CXCXCXCXCXCXCXCXCXCX@ &..XyXcXNXvXaX+X>.j CXCXCXCXCXCXCXCXCXCXCX",
"CXCXCXCXCXCXCXCXCXCXCXCXCX+ a g d @ X CXCXCXCXCXCXCXCXCXCXCXCXCX",
"CXCXCXCXCXCXCXCXCXCXCXCXCXCXCXCXCXCXCXCXCXCXCXCXCXCXCXCXCXCXCXCX",
"CXCXCXCXCXCXCXCXCXCXCXCXCXCXCXCXCXCXCXCXCXCXCXCXCXCXCXCXCXCXCXCX"
};
